<?xml version="1.0" encoding="UTF-8" standalone="no"?>
<!DOCTYPE svg PUBLIC "-//W3C//DTD SVG 1.1//EN" "http://www.w3.org/Graphics/SVG/1.1/DTD/svg11.dtd">
<svg xmlns="http://www.w3.org/2000/svg" version="1.1" viewBox="0.00 0.00 388.00 576.00">
<g stroke-width="2.00" fill="none" stroke-linecap="butt">
<path stroke="#c5c0ba" vector-effect="non-scaling-stroke" d="
  M 388.00 61.74
  L 364.75 66.95"
/>
<path stroke="#80a4d8" vector-effect="non-scaling-stroke" d="
  M 364.75 66.95
  L 363.00 59.56
  A 1.08 1.08 0.0 0 0 361.71 58.76
  Q 332.54 65.51 301.87 69.54
  Q 301.33 69.61 301.40 70.14
  L 302.40 78.22"
/>
<path stroke="#c5c0ba" vector-effect="non-scaling-stroke" d="
  M 302.40 78.22
  L 270.50 81.97"
/>
<path stroke="#ffcf77" vector-effect="non-scaling-stroke" d="
  M 270.50 81.97
  L 269.90 74.86
  A 1.29 1.29 0.0 0 0 268.48 73.69
  Q 247.87 75.88 228.49 76.80
  Q 218.89 77.26 208.47 77.39
  Q 207.90 77.39 207.90 77.97
  L 207.89 85.76"
/>
<path stroke="#c5c0ba" vector-effect="non-scaling-stroke" d="
  M 207.89 85.76
  L 176.25 85.88"
/>
<path stroke="#ff9190" vector-effect="non-scaling-stroke" d="
  M 176.25 85.88
  Q 176.09 85.08 176.45 84.47
  Q 178.97 80.15 183.00 77.12
  Q 196.36 67.05 215.15 61.05
  A 0.32 0.32 0.0 0 0 215.38 60.74
  L 215.45 53.29
  A 0.20 0.19 81.4 0 0 215.20 53.10
  Q 198.81 58.12 185.43 67.32
  Q 180.19 70.91 176.69 76.30
  A 2.28 2.26 -73.8 0 1 174.83 77.33
  L 167.95 77.40"
/>
<path stroke="#ff7c76" vector-effect="non-scaling-stroke" d="
  M 167.95 77.40
  Q 152.84 77.15 137.75 76.10
  Q 126.07 75.29 114.36 74.33
  Q 113.86 74.29 113.80 74.79
  L 113.10 80.98"
/>
<path stroke="#c5c0ba" vector-effect="non-scaling-stroke" d="
  M 113.10 80.98
  Q 113.28 82.69 111.50 82.54
  C 102.90 81.77 94.20 81.08 85.67 79.72
  Q 83.60 79.39 81.36 79.48"
/>
<path stroke="#80a4d8" vector-effect="non-scaling-stroke" d="
  M 81.36 79.48
  L 82.41 71.22
  A 0.61 0.60 -83.3 0 0 81.89 70.55
  Q 50.95 66.65 21.27 60.25
  A 0.58 0.57 12.0 0 0 20.58 60.69
  L 18.87 68.76"
/>
<path stroke="#c5c0ba" vector-effect="non-scaling-stroke" d="
  M 18.87 68.76
  L 0.00 64.49"
/>
<path stroke="#80dab0" vector-effect="non-scaling-stroke" d="
  M 133.22 7.95
  C 135.93 8.35 136.34 5.55 137.19 3.69
  Q 137.54 2.93 136.71 2.99
  L 131.97 3.32
  Q 131.29 3.37 131.10 4.03
  C 130.63 5.71 131.30 7.66 133.22 7.95"
/>
<path stroke="#f9b2dd" vector-effect="non-scaling-stroke" d="
  M 43.22 9.44
  C 42.07 13.54 40.23 17.45 38.21 21.23
  A 1.10 1.10 0.0 0 0 38.89 22.81
  L 41.12 23.43
  Q 42.47 23.80 43.07 22.54
  Q 46.07 16.23 51.20 10.97
  A 0.75 0.75 0.0 0 0 50.98 9.76
  Q 48.05 8.38 45.10 8.13
  A 1.80 1.80 0.0 0 0 43.22 9.44"
/>
<path stroke="#ffdb91" vector-effect="non-scaling-stroke" d="
  M 288.4840 20.5224
  A 1.44 1.44 0.0 0 0 287.6719 18.6549
  L 277.6607 14.7113
  A 1.44 1.44 0.0 0 0 275.7931 15.5233
  L 275.2360 16.9376
  A 1.44 1.44 0.0 0 0 276.0481 18.8051
  L 286.0593 22.7487
  A 1.44 1.44 0.0 0 0 287.9269 21.9367
  L 288.4840 20.5224"
/>
<path stroke="#9fb7f3" vector-effect="non-scaling-stroke" d="
  M 345.75 28.53
  C 347.38 27.00 349.07 26.67 350.84 25.56
  A 0.85 0.84 69.4 0 0 351.23 24.69
  C 350.62 21.29 348.62 20.72 345.74 22.29
  A 1.82 1.81 67.9 0 0 344.87 24.36
  Q 345.39 26.23 344.88 27.99
  Q 344.33 29.85 345.75 28.53"
/>
<path stroke="#ffdb91" vector-effect="non-scaling-stroke" d="
  M 139.93 35.69
  A 0.69 0.69 0.0 0 0 138.80 35.85
  L 136.77 39.94
  A 0.69 0.69 0.0 0 0 136.97 40.80
  L 146.29 47.77
  A 0.69 0.69 0.0 0 0 147.31 47.55
  L 148.40 45.54
  A 0.69 0.69 0.0 0 0 148.30 44.75
  L 139.93 35.69"
/>
<path stroke="#ff9190" vector-effect="non-scaling-stroke" d="
  M 100.7881 38.9647
  A 0.53 0.53 0.0 0 0 100.2817 38.4121
  L 96.1257 38.2307
  A 0.53 0.53 0.0 0 0 95.5731 38.7370
  L 95.4919 40.5953
  A 0.53 0.53 0.0 0 0 95.9983 41.1479
  L 100.1543 41.3293
  A 0.53 0.53 0.0 0 0 100.7069 40.8230
  L 100.7881 38.9647"
/>
<path stroke="#9fb7f3" vector-effect="non-scaling-stroke" d="
  M 317.07 56.45
  A 0.59 0.59 0.0 0 0 317.77 56.55
  L 322.46 53.96
  A 0.59 0.59 0.0 0 0 322.58 53.02
  L 316.09 46.82
  A 0.59 0.59 0.0 0 0 315.23 46.87
  L 312.09 50.61
  A 0.59 0.59 0.0 0 0 312.12 51.40
  L 317.07 56.45"
/>
<path stroke="#9fb7f3" vector-effect="non-scaling-stroke" d="
  M 241.17 55.97
  C 240.22 53.65 240.13 52.54 240.99 50.17
  Q 241.28 49.36 240.44 49.50
  Q 234.83 50.43 229.66 52.11
  Q 227.87 52.69 229.00 54.19
  L 231.69 57.76
  Q 232.88 59.35 234.58 58.32
  Q 237.04 56.82 240.52 56.91
  A 0.68 0.68 0.0 0 0 241.17 55.97"
/>
<path stroke="#c55a5e" vector-effect="non-scaling-stroke" d="
  M 176.25 85.88
  Q 175.85 86.37 175.85 87.24
  Q 175.85 87.74 176.26 88.05
  Q 177.59 89.04 178.41 88.74"
/>
<path stroke="#ff9190" vector-effect="non-scaling-stroke" d="
  M 178.41 88.74
  Q 181.57 92.02 185.73 93.51
  Q 196.87 97.50 207.95 101.91"
/>
<path stroke="#ff691b" vector-effect="non-scaling-stroke" d="
  M 207.95 101.91
  L 208.22 106.60"
/>
<path stroke="#ff7535" vector-effect="non-scaling-stroke" d="
  M 208.22 106.60
  Q 208.56 108.74 208.05 110.01"
/>
<path stroke="#ff9190" vector-effect="non-scaling-stroke" d="
  M 208.05 110.01
  Q 199.28 106.22 187.98 102.37
  Q 180.64 99.87 175.75 93.71"
/>
<path stroke="#ff161a" vector-effect="non-scaling-stroke" d="
  M 175.75 93.71
  Q 175.34 91.40 175.63 88.86
  C 175.80 87.32 175.06 86.17 175.24 84.59
  Q 175.57 81.75 175.67 79.13
  Q 175.68 78.57 175.13 78.49
  L 167.95 77.40"
/>
<path stroke="#466da5" vector-effect="non-scaling-stroke" d="
  M 364.75 66.95
  Q 364.72 68.58 365.18 69.62"
/>
<path stroke="#80a4d8" vector-effect="non-scaling-stroke" d="
  M 365.18 69.62
  L 369.82 90.78"
/>
<path stroke="#016ccd" vector-effect="non-scaling-stroke" d="
  M 369.82 90.78
  Q 370.07 92.58 369.71 94.18
  Q 369.51 95.05 369.12 94.24
  Q 368.89 93.76 368.85 93.23
  Q 368.80 92.61 368.18 92.49
  Q 367.19 92.31 366.20 91.97
  Q 365.19 91.62 364.19 91.60
  Q 360.46 91.51 356.66 91.22
  Q 352.98 90.94 349.27 91.16
  Q 343.56 91.50 337.69 91.50
  C 336.44 91.50 335.29 91.17 334.03 91.49
  Q 333.51 91.62 332.99 91.51
  Q 330.94 91.08 329.07 91.28
  C 327.09 91.50 325.26 90.81 323.29 91.25
  C 321.61 91.63 320.15 90.80 318.49 91.21
  Q 316.46 91.72 314.25 91.74
  Q 310.00 91.78 309.75 91.80
  Q 307.05 92.02 304.35 92.26"
/>
<path stroke="#80a4d8" vector-effect="non-scaling-stroke" d="
  M 304.35 92.26
  L 302.66 80.59"
/>
<path stroke="#466da5" vector-effect="non-scaling-stroke" d="
  M 302.66 80.59
  L 302.40 78.22"
/>
<path stroke="#466da5" vector-effect="non-scaling-stroke" d="
  M 81.36 79.48
  L 81.15 81.52"
/>
<path stroke="#80a4d8" vector-effect="non-scaling-stroke" d="
  M 81.15 81.52
  L 80.06 88.30"
/>
<path stroke="#015dc8" vector-effect="non-scaling-stroke" d="
  M 80.06 88.30
  L 59.60 88.33
  Q 59.11 88.34 58.64 88.17
  Q 58.34 88.06 58.00 88.07
  Q 51.18 88.19 44.74 88.08
  Q 40.23 88.00 35.76 88.16
  Q 31.60 88.32 26.78 88.15
  Q 24.69 88.07 22.76 87.65
  Q 18.10 86.61 15.37 90.35
  Q 14.98 90.89 14.69 90.29
  Q 14.51 89.91 14.62 89.20"
/>
<path stroke="#80a4d8" vector-effect="non-scaling-stroke" d="
  M 14.62 89.20
  L 18.42 70.86"
/>
<path stroke="#466da5" vector-effect="non-scaling-stroke" d="
  M 18.42 70.86
  Q 18.21 69.99 18.87 68.76"
/>
<path stroke="#c5c0ba" vector-effect="non-scaling-stroke" d="
  M 388.00 64.07
  L 365.18 69.62"
/>
<path stroke="#80dab0" vector-effect="non-scaling-stroke" d="
  M 388.00 236.97
  L 383.39 234.90
  A 0.42 0.41 15.1 0 0 382.81 235.23
  Q 382.40 238.75 379.85 240.74
  Q 379.14 241.29 379.94 241.69
  Q 384.15 243.83 388.00 244.10"
/>
<path stroke="#80dab0" vector-effect="non-scaling-stroke" d="
  M 0.00 544.39
  L 0.46 546.56
  A 0.90 0.89 64.8 0 0 1.89 547.08
  Q 2.99 546.20 3.62 544.83
  Q 3.86 544.29 3.39 543.94
  Q 1.82 542.79 0.00 542.46"
/>
<path stroke="#fbe7d7" vector-effect="non-scaling-stroke" d="
  M 0.00 163.23
  Q 1.02 168.11 5.28 168.99"
/>
<path stroke="#80a4d8" vector-effect="non-scaling-stroke" d="
  M 5.28 168.99
  L 5.25 176.48"
/>
<path stroke="#9fb7f3" vector-effect="non-scaling-stroke" d="
  M 5.25 176.48
  C 4.92 179.99 4.07 185.35 6.87 188.04
  C 10.56 191.58 15.10 194.25 17.87 198.69
  A 1.84 1.83 49.3 0 1 17.71 200.85
  C 13.05 206.29 6.91 212.47 4.72 219.38
  C 2.97 224.90 3.76 231.30 3.51 237.22
  C 3.20 244.27 11.98 250.51 17.29 253.81
  C 21.26 256.28 24.44 259.48 26.08 263.95
  Q 27.64 268.20 27.36 263.68
  Q 27.18 260.94 27.28 258.18
  C 27.51 251.47 23.17 245.31 17.75 241.87
  C 13.33 239.06 9.14 235.83 5.79 231.83
  A 2.18 2.17 -53.6 0 1 5.45 229.58
  C 7.75 224.08 12.43 219.39 16.20 214.91
  C 18.94 211.67 20.56 207.80 20.34 203.47
  C 20.12 199.14 20.96 193.57 19.51 189.69
  Q 18.15 186.06 14.71 182.77
  Q 11.72 179.90 10.45 178.89"
/>
<path stroke="#fbe7d7" vector-effect="non-scaling-stroke" d="
  M 10.45 178.89
  Q 15.55 177.83 20.50 178.88
  Q 21.94 179.18 24.48 178.76
  Q 27.66 178.22 32.16 180.21
  Q 32.28 180.26 32.35 180.37
  Q 32.42 180.48 32.23 180.55
  A 0.02 0.02 0.0 0 0 32.23 180.59
  Q 37.34 183.37 42.44 185.10
  Q 42.89 185.26 43.25 185.57
  Q 43.60 185.88 44.03 186.02
  Q 47.00 186.98 50.26 188.08
  Q 55.31 189.79 61.12 189.43
  Q 61.68 189.39 62.11 189.05
  Q 62.99 188.37 64.06 188.16
  Q 64.52 188.07 64.42 187.62
  Q 64.32 187.19 64.73 187.09
  Q 67.32 186.46 70.01 185.38
  Q 73.04 184.15 74.34 180.98
  Q 75.25 178.75 76.19 176.47
  Q 76.39 175.99 76.37 175.48
  Q 76.35 175.03 76.51 174.61
  Q 77.63 171.88 78.11 168.63
  Q 78.54 165.76 79.44 163.10
  Q 79.62 162.58 79.52 162.04
  Q 79.41 161.50 79.73 161.05
  Q 79.84 160.88 79.91 160.69
  Q 80.00 160.41 79.78 160.22
  Q 79.52 159.99 79.51 159.64
  Q 79.41 154.90 80.84 150.45
  C 81.14 149.52 81.01 148.97 81.20 148.09
  Q 81.61 146.23 82.18 144.59
  Q 82.33 144.17 82.17 143.75
  Q 82.07 143.50 82.13 143.23
  Q 83.03 139.55 83.58 135.63
  Q 84.06 132.28 85.28 128.06
  Q 86.84 122.68 87.34 116.87
  C 87.45 115.60 86.80 114.67 86.86 113.41
  Q 86.92 112.32 86.47 111.07
  Q 85.21 107.51 84.39 106.50
  Q 81.76 103.28 77.71 106.53"
/>
<path stroke="#80bfe1" vector-effect="non-scaling-stroke" d="
  M 77.71 106.53
  L 77.79 104.73"
/>
<path stroke="#80b0dc" vector-effect="non-scaling-stroke" d="
  M 77.79 104.73
  L 80.06 88.30"
/>
<path stroke="#c5c0ba" vector-effect="non-scaling-stroke" d="
  M 81.15 81.52
  L 111.47 85.05
  Q 111.99 85.11 112.17 85.60
  Q 112.46 86.39 112.37 87.59"
/>
<path stroke="#ff7c76" vector-effect="non-scaling-stroke" d="
  M 112.37 87.59
  L 110.61 106.38"
/>
<path stroke="#fbe7d7" vector-effect="non-scaling-stroke" d="
  M 110.61 106.38
  L 108.45 117.77
  Q 108.41 117.96 108.25 118.05
  Q 108.02 118.18 107.88 118.09
  Q 107.27 117.68 107.24 118.49
  Q 107.12 120.77 106.59 123.00
  Q 106.37 123.97 105.92 124.76
  Q 105.30 125.85 105.69 127.26
  Q 105.76 127.48 105.58 127.59
  Q 105.42 127.69 105.32 127.57
  A 0.08 0.07 -64.7 0 0 105.19 127.62
  L 105.11 132.28
  Q 105.10 132.76 104.84 133.15
  Q 103.85 134.70 104.35 136.32
  Q 104.50 136.79 104.29 137.24
  Q 103.61 138.76 103.63 140.29
  Q 103.67 143.00 103.82 145.59
  C 103.91 146.95 103.24 147.85 103.62 149.22
  Q 103.74 149.68 103.47 150.07
  Q 102.94 150.84 103.70 151.40
  Q 104.00 151.62 103.71 151.85
  Q 102.88 152.54 102.79 153.68
  Q 102.74 154.18 103.07 154.55
  Q 103.72 155.31 103.57 156.23
  A 1.75 1.75 0.0 0 1 103.08 157.19
  Q 101.77 158.50 102.81 159.86
  Q 103.19 160.37 103.10 160.99
  Q 102.58 164.60 102.65 166.65
  Q 102.94 174.24 101.64 179.72
  Q 101.19 181.62 101.89 183.11
  Q 102.70 184.82 104.71 185.59
  Q 109.24 187.34 113.74 186.87
  Q 119.47 186.28 124.19 185.16
  Q 127.82 184.30 131.39 184.10
  Q 134.92 183.91 138.89 185.08
  Q 145.60 187.06 151.50 190.57
  A 0.56 0.52 10.6 0 1 151.74 190.90
  Q 151.82 191.19 152.10 191.26
  Q 152.39 191.33 152.65 191.46
  Q 156.47 193.43 160.53 192.52
  A 1.88 1.87 14.8 0 0 161.48 191.97
  Q 162.11 191.29 162.97 191.10
  Q 163.42 191.00 163.71 190.65
  C 164.84 189.27 166.30 188.36 166.97 186.60
  Q 169.64 179.57 169.59 172.02
  Q 169.56 166.89 169.12 161.25
  Q 168.93 158.77 170.08 157.87"
/>
<path stroke="#ff9190" vector-effect="non-scaling-stroke" d="
  M 170.08 157.87
  L 173.86 159.88
  A 0.62 0.62 0.0 0 0 174.77 159.34
  L 175.12 141.71"
/>
<path stroke="#80dab0" vector-effect="non-scaling-stroke" d="
  M 175.12 141.71
  Q 174.94 139.73 175.35 138.01
  Q 175.47 137.54 175.89 137.29
  Q 178.80 135.58 179.62 131.76
  Q 179.73 131.25 179.40 130.84
  Q 178.20 129.40 176.49 128.56
  Q 175.39 128.01 175.35 126.82"
/>
<path stroke="#ff9190" vector-effect="non-scaling-stroke" d="
  M 175.35 126.82
  L 175.45 111.99"
/>
<path stroke="#ff7c76" vector-effect="non-scaling-stroke" d="
  M 175.45 111.99
  L 175.75 93.71"
/>
<path stroke="#ffdb91" vector-effect="non-scaling-stroke" d="
  M 208.05 110.01
  Q 208.88 116.93 208.62 124.00
  Q 208.61 124.23 208.48 124.48
  Q 208.36 124.71 208.29 124.93"
/>
<path stroke="#ff9190" vector-effect="non-scaling-stroke" d="
  M 208.29 124.93
  C 204.08 126.79 191.31 132.57 190.32 137.35
  Q 189.92 139.30 190.04 145.39
  C 190.10 148.80 191.13 151.45 193.63 153.69
  C 200.23 159.58 209.55 161.14 215.95 167.38
  A 1.11 1.10 48.7 0 1 215.85 169.05
  Q 211.81 172.15 207.68 174.49
  C 202.87 177.23 198.71 181.16 195.42 185.66
  C 191.30 191.32 191.93 196.35 191.79 202.97
  C 191.58 212.72 201.03 217.15 209.17 219.79
  A 0.21 0.21 0.0 0 0 209.45 219.59
  L 209.44 212.26
  Q 209.44 212.04 209.22 211.97
  C 202.74 209.98 195.38 206.65 192.41 200.34
  Q 192.17 199.82 192.31 199.27
  Q 193.36 195.27 196.48 191.81"
/>
<path stroke="#fbe7d7" vector-effect="non-scaling-stroke" d="
  M 196.48 191.81
  Q 198.43 193.39 200.21 195.24
  Q 202.46 197.59 204.07 198.39
  Q 208.02 200.37 212.70 199.15
  Q 216.49 198.17 220.53 197.08
  Q 221.99 196.68 223.25 195.81
  Q 224.99 194.61 227.29 194.18
  C 229.69 193.74 231.85 192.38 234.27 192.15
  Q 238.84 191.73 244.18 191.89
  Q 245.76 191.93 247.23 192.38
  Q 248.76 192.85 250.35 193.04
  Q 252.74 193.32 255.08 193.85
  Q 256.31 194.12 257.44 194.17
  C 259.64 194.27 261.17 194.51 263.36 193.96
  Q 265.28 193.49 267.33 193.02
  C 268.39 192.78 268.62 192.33 269.51 191.82
  Q 270.40 191.32 270.99 190.09
  Q 272.37 187.27 272.87 184.70
  Q 273.75 180.24 274.08 175.77
  Q 274.40 171.58 274.23 166.73
  Q 274.04 161.24 274.02 155.85
  Q 274.02 155.40 274.37 155.12
  Q 274.81 154.78 275.56 154.85"
/>
<path stroke="#ffdb91" vector-effect="non-scaling-stroke" d="
  M 275.56 154.85
  Q 276.63 155.56 277.57 155.40
  Q 278.07 155.31 278.01 154.80
  Q 276.37 140.38 275.24 126.64
  Q 274.93 122.84 274.23 118.56
  C 272.99 110.93 272.95 103.89 272.12 96.52"
/>
<path stroke="#ffcf77" vector-effect="non-scaling-stroke" d="
  M 272.12 96.52
  L 270.86 84.52"
/>
<path stroke="#c5c0ba" vector-effect="non-scaling-stroke" d="
  M 270.86 84.52
  L 302.66 80.59"
/>
<path stroke="#80bfe1" vector-effect="non-scaling-stroke" d="
  M 304.35 92.26
  L 305.89 102.77"
/>
<path stroke="#fbe7d7" vector-effect="non-scaling-stroke" d="
  M 305.89 102.77
  L 305.76 103.76
  Q 305.70 104.25 305.30 103.96
  Q 304.80 103.61 304.26 103.80
  Q 298.30 105.83 295.65 110.90
  Q 295.51 111.17 295.21 111.20
  Q 295.02 111.22 294.94 111.36
  Q 291.94 116.45 290.58 120.20
  Q 289.63 122.82 289.78 128.10
  Q 289.79 128.53 290.05 128.87
  Q 290.34 129.25 290.38 129.72
  Q 290.55 132.23 291.36 134.75
  Q 292.12 137.16 292.46 140.42
  Q 293.08 146.36 293.51 151.82
  Q 293.68 153.99 294.00 156.17
  Q 294.31 158.29 294.33 160.53
  Q 294.34 162.48 294.78 164.32
  Q 295.23 166.20 295.43 168.22
  Q 295.75 171.36 297.09 174.05
  Q 299.27 178.45 300.97 183.27
  Q 301.75 185.48 303.25 187.18
  Q 304.82 188.96 306.25 190.80
  Q 306.96 191.72 308.02 191.83
  Q 313.64 192.38 318.64 190.09
  Q 323.08 188.06 328.64 185.40
  Q 331.69 183.94 334.72 183.39
  Q 335.18 183.31 335.58 183.08
  Q 337.12 182.20 339.25 182.18
  C 342.46 182.15 346.39 181.68 349.44 182.78
  Q 351.33 183.46 352.86 183.57
  Q 356.69 183.85 361.04 184.59
  Q 362.68 184.87 364.21 185.33
  Q 367.47 186.32 369.95 184.24
  Q 373.42 181.33 374.33 175.06
  C 374.91 171.00 374.54 167.49 373.90 163.57
  Q 373.49 161.02 373.00 158.73
  Q 372.26 155.26 372.16 151.71"
/>
<path stroke="#f9b2dd" vector-effect="non-scaling-stroke" d="
  M 372.16 151.71
  Q 372.35 150.60 371.90 149.47"
/>
<path stroke="#fbe7d7" vector-effect="non-scaling-stroke" d="
  M 371.90 149.47
  Q 371.60 144.50 370.25 140.61
  Q 369.25 137.73 368.98 136.48"
/>
<path stroke="#80bfe1" vector-effect="non-scaling-stroke" d="
  M 368.98 136.48
  L 380.02 139.41
  A 0.40 0.39 1.5 0 0 380.51 138.95
  L 369.82 90.78"
/>
<path stroke="#ff9190" vector-effect="non-scaling-stroke" d="
  M 274.77 103.61
  Q 274.42 111.51 275.20 119.38
  Q 275.24 119.85 275.72 119.85
  Q 279.72 119.79 283.22 120.82
  A 0.32 0.31 3.6 0 0 283.62 120.47
  Q 282.38 112.61 282.81 105.40
  Q 282.90 103.85 281.47 103.26
  Q 279.07 102.27 276.54 102.06
  Q 274.84 101.92 274.77 103.61"
/>
<path stroke="#ff9190" vector-effect="non-scaling-stroke" d="
  M 90.87 182.65
  A 0.67 0.67 0.0 0 0 91.66 182.45
  L 92.85 180.96
  A 0.67 0.67 0.0 0 0 92.64 179.94
  L 86.96 176.98
  A 0.67 0.67 0.0 0 0 86.12 177.17
  L 84.64 179.11
  A 0.67 0.67 0.0 0 0 84.91 180.14
  L 90.87 182.65"
/>
<path stroke="#ff9190" vector-effect="non-scaling-stroke" d="
  M 370.97 192.72
  A 0.31 0.31 0.0 0 0 370.61 193.15
  L 373.20 198.97
  A 0.31 0.31 0.0 0 0 373.43 199.15
  L 379.18 200.15
  A 0.31 0.31 0.0 0 0 379.54 199.90
  L 380.43 195.46
  A 0.31 0.31 0.0 0 0 380.21 195.10
  L 370.97 192.72"
/>
<path stroke="#ff9190" vector-effect="non-scaling-stroke" d="
  M 177.44 205.56
  L 178.48 202.91
  Q 178.72 202.30 178.13 202.04
  Q 176.25 201.21 175.15 199.09
  Q 174.60 198.03 173.93 199.02
  L 172.73 200.78
  Q 171.99 201.86 172.86 202.85
  Q 174.40 204.59 176.54 205.87
  Q 177.17 206.24 177.44 205.56"
/>
<path stroke="#9fb7f3" vector-effect="non-scaling-stroke" d="
  M 308.73 210.58
  Q 313.39 210.75 317.52 212.92
  A 0.52 0.52 0.0 0 0 318.27 212.57
  Q 318.84 209.92 320.46 207.73
  A 0.46 0.46 0.0 0 0 320.28 207.04
  Q 315.76 205.07 309.96 204.48
  A 1.96 1.96 0.0 0 0 307.83 206.05
  L 307.29 208.77
  Q 306.95 210.52 308.73 210.58"
/>
<path stroke="#ff9190" vector-effect="non-scaling-stroke" d="
  M 356.0265 216.4427
  A 1.06 1.06 0.0 0 0 354.5424 216.2315
  L 350.2880 219.4257
  A 1.06 1.06 0.0 0 0 350.0768 220.9098
  L 351.0735 222.2373
  A 1.06 1.06 0.0 0 0 352.5576 222.4485
  L 356.8120 219.2543
  A 1.06 1.06 0.0 0 0 357.0232 217.7702
  L 356.0265 216.4427"
/>
<path stroke="#80dab0" vector-effect="non-scaling-stroke" d="
  M 123.0250 219.7562
  A 2.17 1.04 127.3 0 0 125.1673 218.6602
  A 2.17 1.04 127.3 0 0 125.6550 216.3038
  A 2.17 1.04 127.3 0 0 123.5127 217.3998
  A 2.17 1.04 127.3 0 0 123.0250 219.7562"
/>
<path stroke="#f9b2dd" vector-effect="non-scaling-stroke" d="
  M 222.53 220.87
  A 0.64 0.64 0.0 0 0 222.62 222.01
  Q 226.12 223.47 228.76 226.10
  Q 230.53 227.86 231.56 225.60
  L 231.81 225.06
  Q 232.86 222.76 230.87 221.20
  L 225.46 216.98
  A 0.49 0.49 0.0 0 0 224.67 217.30
  Q 224.36 219.77 222.53 220.87"
/>
<path stroke="#ffdb91" vector-effect="non-scaling-stroke" d="
  M 48.02 252.48
  L 47.98 257.14
  Q 47.96 259.36 50.05 260.08
  Q 54.78 261.72 60.58 261.48
  Q 60.83 261.47 60.80 261.22
  L 59.97 253.36
  A 0.11 0.11 0.0 0 0 59.83 253.26
  Q 55.27 254.31 49.86 251.39
  Q 48.04 250.40 48.02 252.48"
/>
<path stroke="#ffdb91" vector-effect="non-scaling-stroke" d="
  M 128.36 285.83
  L 139.48 279.87
  A 0.21 0.21 0.0 0 0 139.57 279.58
  L 138.62 277.81
  A 2.82 2.66 -28.2 0 0 134.88 276.80
  L 128.36 280.30
  A 2.82 2.66 -28.2 0 0 127.13 283.97
  L 128.08 285.75
  A 0.21 0.21 0.0 0 0 128.36 285.83"
/>
<path stroke="#9fb7f3" vector-effect="non-scaling-stroke" d="
  M 370.86 286.59
  C 370.29 290.96 368.73 294.81 366.82 298.76
  Q 366.27 299.91 367.53 300.10
  Q 369.75 300.45 372.35 299.65
  Q 373.82 299.20 373.83 297.65
  Q 373.84 292.29 374.98 286.94
  Q 375.11 286.36 374.51 286.31
  L 371.49 286.08
  Q 370.93 286.03 370.86 286.59"
/>
<path stroke="#80dab0" vector-effect="non-scaling-stroke" d="
  M 278.58 299.49
  C 281.04 297.77 284.45 296.70 287.30 296.22
  A 0.48 0.48 0.0 0 0 287.52 295.37
  Q 285.05 293.39 282.21 292.26
  A 2.47 2.46 41.1 0 0 280.10 292.40
  L 275.92 294.73
  A 0.47 0.47 0.0 0 0 275.85 295.50
  Q 277.49 296.87 277.73 299.11
  Q 277.83 300.02 278.58 299.49"
/>
<path stroke="#ffdb91" vector-effect="non-scaling-stroke" d="
  M 18.11 317.99
  Q 15.77 318.62 15.69 321.03
  L 15.61 323.48
  Q 15.53 325.96 17.88 325.16
  Q 21.93 323.78 26.06 324.55
  A 0.71 0.71 0.0 0 0 26.88 323.67
  Q 26.06 320.54 27.59 317.82
  A 0.73 0.72 14.1 0 0 26.94 316.74
  Q 22.33 316.87 18.11 317.99"
/>
<path stroke="#80dab0" vector-effect="non-scaling-stroke" d="
  M 76.63 330.72
  A 0.34 0.34 0.0 0 0 76.72 330.31
  L 73.74 324.21
  A 0.34 0.34 0.0 0 0 73.22 324.09
  L 60.77 333.94
  A 0.34 0.34 0.0 0 0 60.68 334.37
  L 64.16 340.59
  A 0.34 0.34 0.0 0 0 64.67 340.69
  L 76.63 330.72"
/>
<path stroke="#ffdb91" vector-effect="non-scaling-stroke" d="
  M 281.68 345.82
  C 284.45 346.69 286.55 343.73 284.95 341.36
  Q 284.23 340.29 283.95 339.05
  Q 283.56 337.36 282.79 338.91
  Q 281.84 340.81 280.76 342.37
  C 279.81 343.76 279.87 345.26 281.68 345.82"
/>
<path stroke="#ff9190" vector-effect="non-scaling-stroke" d="
  M 378.59 352.06
  A 0.34 0.34 0.0 0 0 378.84 351.74
  L 378.92 345.84
  A 0.34 0.34 0.0 0 0 378.53 345.50
  L 369.33 346.96
  A 0.34 0.34 0.0 0 0 369.05 347.33
  L 369.78 353.92
  A 0.34 0.34 0.0 0 0 370.20 354.21
  L 378.59 352.06"
/>
<path stroke="#9fb7f3" vector-effect="non-scaling-stroke" d="
  M 201.50 366.64
  L 201.28 367.06
  Q 200.89 367.81 201.64 368.19
  Q 204.57 369.64 206.97 371.83
  A 0.85 0.84 -59.9 0 0 208.34 371.46
  C 208.71 370.36 208.80 368.69 207.40 368.27
  Q 204.66 367.45 202.21 366.39
  A 0.56 0.56 0.0 0 0 201.50 366.64"
/>
<path stroke="#f9b2dd" vector-effect="non-scaling-stroke" d="
  M 377.52 571.29
  A 0.63 0.63 0.0 0 0 376.81 572.00
  L 377.22 574.87
  A 0.63 0.63 0.0 0 0 378.09 575.36
  L 383.12 573.19
  A 0.63 0.63 0.0 0 0 382.95 571.99
  L 377.52 571.29"
/>
<path stroke="#c5c0ba" vector-effect="non-scaling-stroke" d="
  M 18.42 70.86
  L 0.00 66.91"
/>
<path stroke="#80b0dc" vector-effect="non-scaling-stroke" d="
  M 14.62 89.20
  L 10.66 108.10"
/>
<path stroke="#80bfe1" vector-effect="non-scaling-stroke" d="
  M 10.66 108.10
  L 9.81 111.48"
/>
<path stroke="#9fb7f3" vector-effect="non-scaling-stroke" d="
  M 9.81 111.48
  L 0.00 107.07"
/>
<path stroke="#c59845" vector-effect="non-scaling-stroke" d="
  M 270.50 81.97
  Q 270.42 83.80 270.86 84.52"
/>
<path stroke="#ffb31c" vector-effect="non-scaling-stroke" d="
  M 272.12 96.52
  Q 272.46 100.20 271.51 103.54
  Q 271.35 104.09 270.85 104.34
  Q 270.58 104.48 270.57 104.80
  Q 270.54 105.66 269.81 105.21
  Q 268.60 104.47 267.02 104.65
  Q 261.85 105.22 257.46 104.87
  Q 255.48 104.72 253.32 104.96
  Q 251.37 105.18 248.92 104.91
  C 246.69 104.66 244.44 105.13 242.26 105.00
  Q 237.21 104.67 231.53 104.91
  Q 222.89 105.28 215.16 105.38
  Q 214.02 105.40 212.93 105.73
  Q 211.26 106.24 209.79 105.44
  Q 209.55 105.31 209.65 105.05
  Q 210.09 104.03 209.52 102.92
  Q 209.22 102.34 209.30 102.99
  Q 209.33 103.27 209.09 103.44
  A 0.59 0.58 68.7 0 0 208.86 103.98
  Q 209.06 105.46 208.22 106.60"
/>
<path stroke="#ffcf77" vector-effect="non-scaling-stroke" d="
  M 207.95 101.91
  L 207.81 88.51"
/>
<path stroke="#c59845" vector-effect="non-scaling-stroke" d="
  M 207.81 88.51
  Q 208.44 86.26 207.89 85.76"
/>
<path stroke="#ff161a" vector-effect="non-scaling-stroke" d="
  M 175.45 111.99
  L 174.91 117.37
  Q 174.90 117.40 174.90 117.37
  Q 174.50 115.53 173.81 113.80
  Q 173.63 113.36 173.15 113.29
  Q 171.58 113.07 170.00 113.37
  Q 168.55 113.65 166.89 113.44
  Q 160.43 112.66 152.26 112.82
  Q 145.34 112.97 135.75 112.82
  Q 135.59 112.82 135.44 112.89
  Q 135.20 113.01 134.93 113.02
  L 113.02 113.71
  A 0.10 0.10 0.0 0 0 112.98 113.90
  Q 113.13 113.97 113.29 114.05
  Q 114.04 114.43 113.24 114.17
  Q 113.00 114.10 112.73 114.11
  Q 112.17 114.14 111.96 114.67
  Q 111.87 114.89 111.74 115.09
  Q 111.29 115.81 111.34 114.96
  Q 111.35 114.72 111.08 114.82
  Q 110.68 114.97 110.64 114.54
  L 110.41 111.48"
/>
<path stroke="#fb6b61" vector-effect="non-scaling-stroke" d="
  M 110.41 111.48
  Q 111.02 108.89 110.61 106.38"
/>
<path stroke="#c54544" vector-effect="non-scaling-stroke" d="
  M 112.37 87.59
  Q 113.59 84.34 113.10 80.98"
/>
<path stroke="#c5c0ba" vector-effect="non-scaling-stroke" d="
  M 207.81 88.51
  L 178.41 88.74"
/>
<path stroke="#0078d1" vector-effect="non-scaling-stroke" d="
  M 77.79 104.73
  L 77.33 101.39
  Q 77.25 100.85 76.79 100.56
  Q 76.19 100.19 75.30 100.34
  Q 74.29 100.50 73.28 100.41
  Q 61.98 99.43 50.31 100.33
  Q 50.14 100.34 50.02 100.46
  Q 49.93 100.56 49.83 100.65
  A 0.28 0.28 0.0 0 1 49.66 100.73
  Q 43.16 101.33 36.98 100.95
  Q 33.42 100.73 30.27 100.84
  Q 26.99 100.96 23.77 101.12
  Q 22.47 101.18 21.15 100.91
  Q 19.00 100.48 16.76 101.13
  Q 15.72 101.42 14.61 101.16
  A 1.43 1.43 0.0 0 0 12.87 102.38
  Q 12.51 105.33 10.66 108.10"
/>
<path stroke="#7cafcc" vector-effect="non-scaling-stroke" d="
  M 368.98 136.48
  L 347.51 130.29"
/>
<path stroke="#7ba7c0" vector-effect="non-scaling-stroke" d="
  M 347.51 130.29
  L 343.31 128.86
  A 1.14 1.13 34.9 0 0 342.22 129.05
  Q 327.73 140.81 313.27 151.33
  Q 312.66 151.78 312.55 151.03
  L 308.61 122.68"
/>
<path stroke="#7cafcc" vector-effect="non-scaling-stroke" d="
  M 308.61 122.68
  L 305.89 102.77"
/>
<path stroke="#fbcb7b" vector-effect="non-scaling-stroke" d="
  M 275.56 154.85
  L 265.40 150.79"
/>
<path stroke="#fac370" vector-effect="non-scaling-stroke" d="
  M 265.40 150.79
  Q 254.57 146.48 243.48 141.55
  Q 241.58 140.70 240.30 141.55
  Q 227.36 150.19 213.74 157.57"
/>
<path stroke="#ff7535" vector-effect="non-scaling-stroke" d="
  M 213.74 157.57
  L 210.15 159.92
  A 0.43 0.43 0.0 0 1 209.48 159.55
  L 209.55 154.88"
/>
<path stroke="#fbcb7b" vector-effect="non-scaling-stroke" d="
  M 209.55 154.88
  L 208.99 132.41"
/>
<path stroke="#ff7535" vector-effect="non-scaling-stroke" d="
  M 208.99 132.41
  Q 208.75 129.01 208.70 125.42
  Q 208.70 125.21 208.60 125.10
  Q 208.48 124.96 208.29 124.93"
/>
<path stroke="#7cafcc" vector-effect="non-scaling-stroke" d="
  M 77.71 106.53
  L 71.64 152.10
  A 0.45 0.45 0.0 0 1 70.94 152.41
  L 65.40 148.61"
/>
<path stroke="#7ba7c0" vector-effect="non-scaling-stroke" d="
  M 65.40 148.61
  L 40.12 130.13
  A 1.19 1.19 0.0 0 0 39.03 129.96
  L 24.23 134.91"
/>
<path stroke="#016ccd" vector-effect="non-scaling-stroke" d="
  M 24.23 134.91
  Q 23.46 134.71 22.67 135.57"
/>
<path stroke="#7cafcc" vector-effect="non-scaling-stroke" d="
  M 22.67 135.57
  L 4.14 141.00
  A 0.27 0.27 0.0 0 1 3.80 140.68
  L 7.30 124.57"
/>
<path stroke="#207fe8" vector-effect="non-scaling-stroke" d="
  M 7.30 124.57
  Q 7.75 117.74 9.81 111.48"
/>
<path stroke="#f7cfb6" vector-effect="non-scaling-stroke" d="
  M 308.61 122.68
  Q 308.25 123.87 308.50 125.25
  Q 308.89 127.39 308.63 129.72
  Q 308.55 130.43 308.00 130.00
  Q 307.63 129.70 307.41 130.12
  A 2.86 2.20 70.3 0 0 307.13 130.99
  Q 306.57 135.27 306.76 137.01
  Q 307.23 141.25 307.38 145.52
  Q 307.40 146.01 307.69 146.40
  Q 308.52 147.51 308.69 149.05
  Q 309.07 152.48 309.77 155.87
  Q 310.35 158.66 310.44 161.92
  Q 310.61 168.05 311.47 174.29
  Q 311.75 176.25 313.51 177.07
  Q 314.03 177.31 314.58 177.15
  Q 316.50 176.61 318.41 176.12
  Q 320.16 175.67 321.99 174.59
  Q 324.68 173.00 327.59 172.40
  Q 330.87 171.73 334.32 170.95
  Q 340.55 169.55 348.49 170.01
  Q 354.21 170.34 360.04 171.01
  A 1.91 1.91 0.0 0 0 362.09 169.63
  Q 362.70 167.49 362.41 165.21
  C 362.29 164.28 362.71 163.74 362.52 162.69
  Q 361.37 156.22 360.06 149.91
  Q 359.41 146.79 358.44 143.60
  Q 357.49 140.49 356.54 137.27
  Q 355.92 135.16 355.23 134.41
  Q 353.98 133.05 352.01 133.22
  Q 348.32 133.54 347.51 130.29"
/>
<path stroke="#f5a2c8" vector-effect="non-scaling-stroke" d="
  M 371.90 149.47
  L 367.77 147.96
  Q 367.03 147.70 367.30 148.43
  L 368.77 152.47
  Q 368.97 152.99 369.50 153.15
  Q 371.18 153.65 372.16 151.71"
/>
<path stroke="#9ba7dd" vector-effect="non-scaling-stroke" d="
  M 10.45 178.89
  L 7.36 176.53"
/>
<path stroke="#7c93c2" vector-effect="non-scaling-stroke" d="
  M 7.36 176.53
  Q 6.94 176.26 7.29 175.76
  Q 12.50 168.14 18.23 160.99"
/>
<path stroke="#f7cfb6" vector-effect="non-scaling-stroke" d="
  M 18.23 160.99
  Q 19.11 161.23 19.42 161.98
  Q 19.53 162.25 19.26 162.36
  Q 19.09 162.43 18.99 162.43
  Q 18.16 162.40 18.99 162.40
  Q 26.02 162.35 34.33 163.75
  Q 36.54 164.13 38.91 164.18
  A 1.34 1.24 55.9 0 1 39.47 164.31
  Q 45.31 166.97 50.06 170.93
  Q 51.49 172.12 53.00 172.51
  Q 54.44 172.87 55.99 172.84
  Q 56.35 172.83 56.61 173.07
  Q 56.95 173.38 57.38 173.22
  C 61.16 171.80 61.69 167.72 62.44 164.22
  A 0.51 0.50 -7.9 0 1 62.70 163.88
  Q 63.04 163.68 63.10 163.24
  Q 64.03 156.13 65.40 148.61"
/>
<path stroke="#7cc99b" vector-effect="non-scaling-stroke" d="
  M 39.98 167.90
  Q 39.90 167.25 39.28 167.47
  Q 36.01 168.61 33.46 171.18
  A 1.83 1.82 -40.5 0 0 33.27 173.53
  L 34.58 175.37
  Q 35.44 176.59 36.46 175.50
  Q 38.88 172.89 41.82 172.08
  A 0.67 0.67 0.0 0 0 41.96 170.84
  Q 40.21 169.93 39.98 167.90"
/>
<path stroke="#fb817b" vector-effect="non-scaling-stroke" d="
  M 110.41 111.48
  L 106.34 156.41"
/>
<path stroke="#f7cfb6" vector-effect="non-scaling-stroke" d="
  M 106.34 156.41
  Q 108.47 158.59 107.05 163.20
  Q 106.45 165.16 106.29 166.37
  Q 106.08 168.01 105.87 169.64
  Q 105.61 171.78 104.89 173.67
  Q 104.12 175.69 104.40 177.91
  Q 104.48 178.51 104.20 179.06
  Q 103.79 179.86 103.97 180.79
  Q 104.23 182.13 105.33 182.73
  Q 106.08 183.14 106.74 183.61
  Q 107.41 184.08 108.25 184.16
  Q 110.99 184.42 113.56 184.69
  Q 117.98 185.15 122.34 183.24
  Q 124.60 182.25 127.08 182.01
  Q 133.61 181.37 139.84 182.13
  C 144.00 182.64 148.25 184.26 152.19 185.75
  C 153.51 186.25 154.88 185.83 155.86 186.45
  Q 158.50 188.12 160.15 185.71
  Q 160.54 185.13 161.23 184.93
  A 1.08 1.06 2.2 0 0 161.91 184.31
  Q 164.28 178.76 164.42 173.97
  Q 164.50 171.25 164.76 168.33
  Q 165.09 164.54 164.99 162.66
  Q 164.78 158.81 164.25 154.73"
/>
<path stroke="#fb817b" vector-effect="non-scaling-stroke" d="
  M 164.25 154.73
  L 170.08 157.87"
/>
<path stroke="#9ba7dd" vector-effect="non-scaling-stroke" d="
  M 7.30 124.57
  L 7.48 122.92
  Q 7.54 122.38 7.05 122.15
  L 0.00 118.81"
/>
<path stroke="#807454" vector-effect="non-scaling-stroke" d="
  M 175.35 126.82
  L 174.37 128.72
  Q 174.15 129.15 174.19 129.64
  L 175.12 141.71"
/>
<path stroke="#fb796f" vector-effect="non-scaling-stroke" d="
  M 164.25 154.73
  Q 153.13 148.58 141.52 141.68
  Q 140.47 141.05 139.35 141.62
  Q 123.67 149.49 106.34 156.41"
/>
<path stroke="#7c93c2" vector-effect="non-scaling-stroke" d="
  M 22.67 135.57
  Q 22.91 142.25 18.43 148.19
  Q 13.20 155.10 8.07 162.09
  Q 6.65 164.02 5.28 168.99"
/>
<path stroke="#7c8cb7" vector-effect="non-scaling-stroke" d="
  M 330.80 145.67
  L 330.64 146.03
  A 1.86 1.85 27.3 0 0 331.39 148.37
  Q 332.51 149.04 333.52 148.86
  Q 334.05 148.76 334.40 148.34
  L 336.64 145.64
  A 0.30 0.30 0.0 0 0 336.35 145.16
  Q 334.54 145.50 332.78 144.84
  Q 331.40 144.32 330.80 145.67"
/>
<path stroke="#fb817b" vector-effect="non-scaling-stroke" d="
  M 208.99 132.41
  C 203.03 135.27 197.01 138.05 191.95 142.13
  A 1.30 1.30 0.0 0 0 191.77 143.98
  C 196.10 149.10 203.37 152.01 209.55 154.88"
/>
<path stroke="#fb796f" vector-effect="non-scaling-stroke" d="
  M 213.74 157.57
  C 217.02 159.81 218.56 162.73 218.34 166.78
  C 218.16 170.30 219.23 174.29 216.02 176.80
  C 212.19 179.79 208.13 181.83 204.31 184.57"
/>
<path stroke="#fb817b" vector-effect="non-scaling-stroke" d="
  M 204.31 184.57
  Q 199.54 187.98 196.48 191.81"
/>
<path stroke="#7c8cb7" vector-effect="non-scaling-stroke" d="
  M 18.23 160.99
  C 21.43 155.24 23.90 150.56 24.08 143.75
  Q 24.19 139.45 24.23 134.91"
/>
<path stroke="#2064de" vector-effect="non-scaling-stroke" d="
  M 7.36 176.53
  Q 6.38 176.69 5.25 176.48"
/>
<path stroke="#f7cfb6" vector-effect="non-scaling-stroke" d="
  M 265.40 150.79
  Q 265.04 152.71 264.87 156.75
  Q 264.81 158.11 265.01 159.13
  Q 265.44 161.25 265.46 161.43
  Q 265.62 163.28 265.89 165.15
  C 266.55 169.78 266.09 174.90 266.35 179.66
  Q 266.46 181.77 266.94 183.86
  Q 267.51 186.32 266.35 188.52
  Q 265.23 190.64 262.51 190.60
  Q 262.09 190.60 261.75 190.84
  Q 260.83 191.48 259.64 191.01
  A 1.94 1.85 -36.1 0 0 258.74 190.89
  Q 257.48 191.01 256.33 190.50
  Q 255.63 190.20 254.86 189.98
  Q 253.65 189.65 252.61 189.01
  Q 247.90 186.12 241.93 184.20
  C 240.51 183.74 239.36 183.98 237.96 183.80
  Q 236.49 183.62 235.03 183.77
  Q 230.52 184.25 225.81 185.19
  Q 225.13 185.33 224.26 185.72
  Q 223.49 186.06 222.69 186.29
  Q 221.50 186.64 220.37 187.11
  Q 215.84 189.01 211.07 188.54
  Q 209.38 188.37 207.50 186.99
  Q 205.90 185.83 204.31 184.57"
/>
</g>
<path fill="#fff7ec" d="
  M 0.00 0.00
  L 388.00 0.00
  L 388.00 61.74
  L 364.75 66.95
  L 363.00 59.56
  A 1.08 1.08 0.0 0 0 361.71 58.76
  Q 332.54 65.51 301.87 69.54
  Q 301.33 69.61 301.40 70.14
  L 302.40 78.22
  L 270.50 81.97
  L 269.90 74.86
  A 1.29 1.29 0.0 0 0 268.48 73.69
  Q 247.87 75.88 228.49 76.80
  Q 218.89 77.26 208.47 77.39
  Q 207.90 77.39 207.90 77.97
  L 207.89 85.76
  L 176.25 85.88
  Q 176.09 85.08 176.45 84.47
  Q 178.97 80.15 183.00 77.12
  Q 196.36 67.05 215.15 61.05
  A 0.32 0.32 0.0 0 0 215.38 60.74
  L 215.45 53.29
  A 0.20 0.19 81.4 0 0 215.20 53.10
  Q 198.81 58.12 185.43 67.32
  Q 180.19 70.91 176.69 76.30
  A 2.28 2.26 -73.8 0 1 174.83 77.33
  L 167.95 77.40
  Q 152.84 77.15 137.75 76.10
  Q 126.07 75.29 114.36 74.33
  Q 113.86 74.29 113.80 74.79
  L 113.10 80.98
  Q 113.28 82.69 111.50 82.54
  C 102.90 81.77 94.20 81.08 85.67 79.72
  Q 83.60 79.39 81.36 79.48
  L 82.41 71.22
  A 0.61 0.60 -83.3 0 0 81.89 70.55
  Q 50.95 66.65 21.27 60.25
  A 0.58 0.57 12.0 0 0 20.58 60.69
  L 18.87 68.76
  L 0.00 64.49
  L 0.00 0.00
  Z
  M 133.22 7.95
  C 135.93 8.35 136.34 5.55 137.19 3.69
  Q 137.54 2.93 136.71 2.99
  L 131.97 3.32
  Q 131.29 3.37 131.10 4.03
  C 130.63 5.71 131.30 7.66 133.22 7.95
  Z
  M 43.22 9.44
  C 42.07 13.54 40.23 17.45 38.21 21.23
  A 1.10 1.10 0.0 0 0 38.89 22.81
  L 41.12 23.43
  Q 42.47 23.80 43.07 22.54
  Q 46.07 16.23 51.20 10.97
  A 0.75 0.75 0.0 0 0 50.98 9.76
  Q 48.05 8.38 45.10 8.13
  A 1.80 1.80 0.0 0 0 43.22 9.44
  Z
  M 288.4840 20.5224
  A 1.44 1.44 0.0 0 0 287.6719 18.6549
  L 277.6607 14.7113
  A 1.44 1.44 0.0 0 0 275.7931 15.5233
  L 275.2360 16.9376
  A 1.44 1.44 0.0 0 0 276.0481 18.8051
  L 286.0593 22.7487
  A 1.44 1.44 0.0 0 0 287.9269 21.9367
  L 288.4840 20.5224
  Z
  M 345.75 28.53
  C 347.38 27.00 349.07 26.67 350.84 25.56
  A 0.85 0.84 69.4 0 0 351.23 24.69
  C 350.62 21.29 348.62 20.72 345.74 22.29
  A 1.82 1.81 67.9 0 0 344.87 24.36
  Q 345.39 26.23 344.88 27.99
  Q 344.33 29.85 345.75 28.53
  Z
  M 139.93 35.69
  A 0.69 0.69 0.0 0 0 138.80 35.85
  L 136.77 39.94
  A 0.69 0.69 0.0 0 0 136.97 40.80
  L 146.29 47.77
  A 0.69 0.69 0.0 0 0 147.31 47.55
  L 148.40 45.54
  A 0.69 0.69 0.0 0 0 148.30 44.75
  L 139.93 35.69
  Z
  M 100.7881 38.9647
  A 0.53 0.53 0.0 0 0 100.2817 38.4121
  L 96.1257 38.2307
  A 0.53 0.53 0.0 0 0 95.5731 38.7370
  L 95.4919 40.5953
  A 0.53 0.53 0.0 0 0 95.9983 41.1479
  L 100.1543 41.3293
  A 0.53 0.53 0.0 0 0 100.7069 40.8230
  L 100.7881 38.9647
  Z
  M 317.07 56.45
  A 0.59 0.59 0.0 0 0 317.77 56.55
  L 322.46 53.96
  A 0.59 0.59 0.0 0 0 322.58 53.02
  L 316.09 46.82
  A 0.59 0.59 0.0 0 0 315.23 46.87
  L 312.09 50.61
  A 0.59 0.59 0.0 0 0 312.12 51.40
  L 317.07 56.45
  Z
  M 241.17 55.97
  C 240.22 53.65 240.13 52.54 240.99 50.17
  Q 241.28 49.36 240.44 49.50
  Q 234.83 50.43 229.66 52.11
  Q 227.87 52.69 229.00 54.19
  L 231.69 57.76
  Q 232.88 59.35 234.58 58.32
  Q 237.04 56.82 240.52 56.91
  A 0.68 0.68 0.0 0 0 241.17 55.97
  Z"
/>
<path fill="#01bc74" d="
  M 137.19 3.69
  C 136.34 5.55 135.93 8.35 133.22 7.95
  C 131.30 7.66 130.63 5.71 131.10 4.03
  Q 131.29 3.37 131.97 3.32
  L 136.71 2.99
  Q 137.54 2.93 137.19 3.69
  Z"
/>
<path fill="#f26dce" d="
  M 38.21 21.23
  C 40.23 17.45 42.07 13.54 43.22 9.44
  A 1.80 1.80 0.0 0 1 45.10 8.13
  Q 48.05 8.38 50.98 9.76
  A 0.75 0.75 0.0 0 1 51.20 10.97
  Q 46.07 16.23 43.07 22.54
  Q 42.47 23.80 41.12 23.43
  L 38.89 22.81
  A 1.10 1.10 0.0 0 1 38.21 21.23
  Z"
/>
<rect fill="#febf35" x="-6.82" y="-2.20" transform="translate(281.86,18.73) rotate(21.5)" width="13.64" height="4.40" rx="1.44"/>
<path fill="#3f77f9" d="
  M 350.84 25.56
  C 349.07 26.67 347.38 27.00 345.75 28.53
  Q 344.33 29.85 344.88 27.99
  Q 345.39 26.23 344.87 24.36
  A 1.82 1.81 67.9 0 1 345.74 22.29
  C 348.62 20.72 350.62 21.29 351.23 24.69
  A 0.85 0.84 69.4 0 1 350.84 25.56
  Z"
/>
<path fill="#febf35" d="
  M 139.93 35.69
  L 148.30 44.75
  A 0.69 0.69 0.0 0 1 148.40 45.54
  L 147.31 47.55
  A 0.69 0.69 0.0 0 1 146.29 47.77
  L 136.97 40.80
  A 0.69 0.69 0.0 0 1 136.77 39.94
  L 138.80 35.85
  A 0.69 0.69 0.0 0 1 139.93 35.69
  Z"
/>
<rect fill="#ff2b34" x="-2.61" y="-1.46" transform="translate(98.14,39.78) rotate(2.5)" width="5.22" height="2.92" rx="0.53"/>
<path fill="#3f77f9" d="
  M 317.07 56.45
  L 312.12 51.40
  A 0.59 0.59 0.0 0 1 312.09 50.61
  L 315.23 46.87
  A 0.59 0.59 0.0 0 1 316.09 46.82
  L 322.58 53.02
  A 0.59 0.59 0.0 0 1 322.46 53.96
  L 317.77 56.55
  A 0.59 0.59 0.0 0 1 317.07 56.45
  Z"
/>
<path fill="#3f77f9" d="
  M 240.99 50.17
  C 240.13 52.54 240.22 53.65 241.17 55.97
  A 0.68 0.68 0.0 0 1 240.52 56.91
  Q 237.04 56.82 234.58 58.32
  Q 232.88 59.35 231.69 57.76
  L 229.00 54.19
  Q 227.87 52.69 229.66 52.11
  Q 234.83 50.43 240.44 49.50
  Q 241.28 49.36 240.99 50.17
  Z"
/>
<path fill="#ff2b34" d="
  M 176.25 85.88
  Q 175.85 86.37 175.85 87.24
  Q 175.85 87.74 176.26 88.05
  Q 177.59 89.04 178.41 88.74
  Q 181.57 92.02 185.73 93.51
  Q 196.87 97.50 207.95 101.91
  L 208.22 106.60
  Q 208.56 108.74 208.05 110.01
  Q 199.28 106.22 187.98 102.37
  Q 180.64 99.87 175.75 93.71
  Q 175.34 91.40 175.63 88.86
  C 175.80 87.32 175.06 86.17 175.24 84.59
  Q 175.57 81.75 175.67 79.13
  Q 175.68 78.57 175.13 78.49
  L 167.95 77.40
  L 174.83 77.33
  A 2.28 2.26 -73.8 0 0 176.69 76.30
  Q 180.19 70.91 185.43 67.32
  Q 198.81 58.12 215.20 53.10
  A 0.20 0.19 81.4 0 1 215.45 53.29
  L 215.38 60.74
  A 0.32 0.32 0.0 0 1 215.15 61.05
  Q 196.36 67.05 183.00 77.12
  Q 178.97 80.15 176.45 84.47
  Q 176.09 85.08 176.25 85.88
  Z"
/>
<path fill="#0150c3" d="
  M 364.75 66.95
  Q 364.72 68.58 365.18 69.62
  L 369.82 90.78
  Q 370.07 92.58 369.71 94.18
  Q 369.51 95.05 369.12 94.24
  Q 368.89 93.76 368.85 93.23
  Q 368.80 92.61 368.18 92.49
  Q 367.19 92.31 366.20 91.97
  Q 365.19 91.62 364.19 91.60
  Q 360.46 91.51 356.66 91.22
  Q 352.98 90.94 349.27 91.16
  Q 343.56 91.50 337.69 91.50
  C 336.44 91.50 335.29 91.17 334.03 91.49
  Q 333.51 91.62 332.99 91.51
  Q 330.94 91.08 329.07 91.28
  C 327.09 91.50 325.26 90.81 323.29 91.25
  C 321.61 91.63 320.15 90.80 318.49 91.21
  Q 316.46 91.72 314.25 91.74
  Q 310.00 91.78 309.75 91.80
  Q 307.05 92.02 304.35 92.26
  L 302.66 80.59
  L 302.40 78.22
  L 301.40 70.14
  Q 301.33 69.61 301.87 69.54
  Q 332.54 65.51 361.71 58.76
  A 1.08 1.08 0.0 0 1 363.00 59.56
  L 364.75 66.95
  Z"
/>
<path fill="#0150c3" d="
  M 81.36 79.48
  L 81.15 81.52
  L 80.06 88.30
  L 59.60 88.33
  Q 59.11 88.34 58.64 88.17
  Q 58.34 88.06 58.00 88.07
  Q 51.18 88.19 44.74 88.08
  Q 40.23 88.00 35.76 88.16
  Q 31.60 88.32 26.78 88.15
  Q 24.69 88.07 22.76 87.65
  Q 18.10 86.61 15.37 90.35
  Q 14.98 90.89 14.69 90.29
  Q 14.51 89.91 14.62 89.20
  L 18.42 70.86
  Q 18.21 69.99 18.87 68.76
  L 20.58 60.69
  A 0.58 0.57 12.0 0 1 21.27 60.25
  Q 50.95 66.65 81.89 70.55
  A 0.61 0.60 -83.3 0 1 82.41 71.22
  L 81.36 79.48
  Z"
/>
<path fill="#8a8987" d="
  M 388.00 61.74
  L 388.00 64.07
  L 365.18 69.62
  Q 364.72 68.58 364.75 66.95
  L 388.00 61.74
  Z"
/>
<path fill="#fff7ec" d="
  M 388.00 64.07
  L 388.00 236.97
  L 383.39 234.90
  A 0.42 0.41 15.1 0 0 382.81 235.23
  Q 382.40 238.75 379.85 240.74
  Q 379.14 241.29 379.94 241.69
  Q 384.15 243.83 388.00 244.10
  L 388.00 576.00
  L 0.00 576.00
  L 0.00 544.39
  L 0.46 546.56
  A 0.90 0.89 64.8 0 0 1.89 547.08
  Q 2.99 546.20 3.62 544.83
  Q 3.86 544.29 3.39 543.94
  Q 1.82 542.79 0.00 542.46
  L 0.00 163.23
  Q 1.02 168.11 5.28 168.99
  L 5.25 176.48
  C 4.92 179.99 4.07 185.35 6.87 188.04
  C 10.56 191.58 15.10 194.25 17.87 198.69
  A 1.84 1.83 49.3 0 1 17.71 200.85
  C 13.05 206.29 6.91 212.47 4.72 219.38
  C 2.97 224.90 3.76 231.30 3.51 237.22
  C 3.20 244.27 11.98 250.51 17.29 253.81
  C 21.26 256.28 24.44 259.48 26.08 263.95
  Q 27.64 268.20 27.36 263.68
  Q 27.18 260.94 27.28 258.18
  C 27.51 251.47 23.17 245.31 17.75 241.87
  C 13.33 239.06 9.14 235.83 5.79 231.83
  A 2.18 2.17 -53.6 0 1 5.45 229.58
  C 7.75 224.08 12.43 219.39 16.20 214.91
  C 18.94 211.67 20.56 207.80 20.34 203.47
  C 20.12 199.14 20.96 193.57 19.51 189.69
  Q 18.15 186.06 14.71 182.77
  Q 11.72 179.90 10.45 178.89
  Q 15.55 177.83 20.50 178.88
  Q 21.94 179.18 24.48 178.76
  Q 27.66 178.22 32.16 180.21
  Q 32.28 180.26 32.35 180.37
  Q 32.42 180.48 32.23 180.55
  A 0.02 0.02 0.0 0 0 32.23 180.59
  Q 37.34 183.37 42.44 185.10
  Q 42.89 185.26 43.25 185.57
  Q 43.60 185.88 44.03 186.02
  Q 47.00 186.98 50.26 188.08
  Q 55.31 189.79 61.12 189.43
  Q 61.68 189.39 62.11 189.05
  Q 62.99 188.37 64.06 188.16
  Q 64.52 188.07 64.42 187.62
  Q 64.32 187.19 64.73 187.09
  Q 67.32 186.46 70.01 185.38
  Q 73.04 184.15 74.34 180.98
  Q 75.25 178.75 76.19 176.47
  Q 76.39 175.99 76.37 175.48
  Q 76.35 175.03 76.51 174.61
  Q 77.63 171.88 78.11 168.63
  Q 78.54 165.76 79.44 163.10
  Q 79.62 162.58 79.52 162.04
  Q 79.41 161.50 79.73 161.05
  Q 79.84 160.88 79.91 160.69
  Q 80.00 160.41 79.78 160.22
  Q 79.52 159.99 79.51 159.64
  Q 79.41 154.90 80.84 150.45
  C 81.14 149.52 81.01 148.97 81.20 148.09
  Q 81.61 146.23 82.18 144.59
  Q 82.33 144.17 82.17 143.75
  Q 82.07 143.50 82.13 143.23
  Q 83.03 139.55 83.58 135.63
  Q 84.06 132.28 85.28 128.06
  Q 86.84 122.68 87.34 116.87
  C 87.45 115.60 86.80 114.67 86.86 113.41
  Q 86.92 112.32 86.47 111.07
  Q 85.21 107.51 84.39 106.50
  Q 81.76 103.28 77.71 106.53
  L 77.79 104.73
  L 80.06 88.30
  L 81.15 81.52
  L 111.47 85.05
  Q 111.99 85.11 112.17 85.60
  Q 112.46 86.39 112.37 87.59
  L 110.61 106.38
  L 108.45 117.77
  Q 108.41 117.96 108.25 118.05
  Q 108.02 118.18 107.88 118.09
  Q 107.27 117.68 107.24 118.49
  Q 107.12 120.77 106.59 123.00
  Q 106.37 123.97 105.92 124.76
  Q 105.30 125.85 105.69 127.26
  Q 105.76 127.48 105.58 127.59
  Q 105.42 127.69 105.32 127.57
  A 0.08 0.07 -64.7 0 0 105.19 127.62
  L 105.11 132.28
  Q 105.10 132.76 104.84 133.15
  Q 103.85 134.70 104.35 136.32
  Q 104.50 136.79 104.29 137.24
  Q 103.61 138.76 103.63 140.29
  Q 103.67 143.00 103.82 145.59
  C 103.91 146.95 103.24 147.85 103.62 149.22
  Q 103.74 149.68 103.47 150.07
  Q 102.94 150.84 103.70 151.40
  Q 104.00 151.62 103.71 151.85
  Q 102.88 152.54 102.79 153.68
  Q 102.74 154.18 103.07 154.55
  Q 103.72 155.31 103.57 156.23
  A 1.75 1.75 0.0 0 1 103.08 157.19
  Q 101.77 158.50 102.81 159.86
  Q 103.19 160.37 103.10 160.99
  Q 102.58 164.60 102.65 166.65
  Q 102.94 174.24 101.64 179.72
  Q 101.19 181.62 101.89 183.11
  Q 102.70 184.82 104.71 185.59
  Q 109.24 187.34 113.74 186.87
  Q 119.47 186.28 124.19 185.16
  Q 127.82 184.30 131.39 184.10
  Q 134.92 183.91 138.89 185.08
  Q 145.60 187.06 151.50 190.57
  A 0.56 0.52 10.6 0 1 151.74 190.90
  Q 151.82 191.19 152.10 191.26
  Q 152.39 191.33 152.65 191.46
  Q 156.47 193.43 160.53 192.52
  A 1.88 1.87 14.8 0 0 161.48 191.97
  Q 162.11 191.29 162.97 191.10
  Q 163.42 191.00 163.71 190.65
  C 164.84 189.27 166.30 188.36 166.97 186.60
  Q 169.64 179.57 169.59 172.02
  Q 169.56 166.89 169.12 161.25
  Q 168.93 158.77 170.08 157.87
  L 173.86 159.88
  A 0.62 0.62 0.0 0 0 174.77 159.34
  L 175.12 141.71
  Q 174.94 139.73 175.35 138.01
  Q 175.47 137.54 175.89 137.29
  Q 178.80 135.58 179.62 131.76
  Q 179.73 131.25 179.40 130.84
  Q 178.20 129.40 176.49 128.56
  Q 175.39 128.01 175.35 126.82
  L 175.45 111.99
  L 175.75 93.71
  Q 180.64 99.87 187.98 102.37
  Q 199.28 106.22 208.05 110.01
  Q 208.88 116.93 208.62 124.00
  Q 208.61 124.23 208.48 124.48
  Q 208.36 124.71 208.29 124.93
  C 204.08 126.79 191.31 132.57 190.32 137.35
  Q 189.92 139.30 190.04 145.39
  C 190.10 148.80 191.13 151.45 193.63 153.69
  C 200.23 159.58 209.55 161.14 215.95 167.38
  A 1.11 1.10 48.7 0 1 215.85 169.05
  Q 211.81 172.15 207.68 174.49
  C 202.87 177.23 198.71 181.16 195.42 185.66
  C 191.30 191.32 191.93 196.35 191.79 202.97
  C 191.58 212.72 201.03 217.15 209.17 219.79
  A 0.21 0.21 0.0 0 0 209.45 219.59
  L 209.44 212.26
  Q 209.44 212.04 209.22 211.97
  C 202.74 209.98 195.38 206.65 192.41 200.34
  Q 192.17 199.82 192.31 199.27
  Q 193.36 195.27 196.48 191.81
  Q 198.43 193.39 200.21 195.24
  Q 202.46 197.59 204.07 198.39
  Q 208.02 200.37 212.70 199.15
  Q 216.49 198.17 220.53 197.08
  Q 221.99 196.68 223.25 195.81
  Q 224.99 194.61 227.29 194.18
  C 229.69 193.74 231.85 192.38 234.27 192.15
  Q 238.84 191.73 244.18 191.89
  Q 245.76 191.93 247.23 192.38
  Q 248.76 192.85 250.35 193.04
  Q 252.74 193.32 255.08 193.85
  Q 256.31 194.12 257.44 194.17
  C 259.64 194.27 261.17 194.51 263.36 193.96
  Q 265.28 193.49 267.33 193.02
  C 268.39 192.78 268.62 192.33 269.51 191.82
  Q 270.40 191.32 270.99 190.09
  Q 272.37 187.27 272.87 184.70
  Q 273.75 180.24 274.08 175.77
  Q 274.40 171.58 274.23 166.73
  Q 274.04 161.24 274.02 155.85
  Q 274.02 155.40 274.37 155.12
  Q 274.81 154.78 275.56 154.85
  Q 276.63 155.56 277.57 155.40
  Q 278.07 155.31 278.01 154.80
  Q 276.37 140.38 275.24 126.64
  Q 274.93 122.84 274.23 118.56
  C 272.99 110.93 272.95 103.89 272.12 96.52
  L 270.86 84.52
  L 302.66 80.59
  L 304.35 92.26
  L 305.89 102.77
  L 305.76 103.76
  Q 305.70 104.25 305.30 103.96
  Q 304.80 103.61 304.26 103.80
  Q 298.30 105.83 295.65 110.90
  Q 295.51 111.17 295.21 111.20
  Q 295.02 111.22 294.94 111.36
  Q 291.94 116.45 290.58 120.20
  Q 289.63 122.82 289.78 128.10
  Q 289.79 128.53 290.05 128.87
  Q 290.34 129.25 290.38 129.72
  Q 290.55 132.23 291.36 134.75
  Q 292.12 137.16 292.46 140.42
  Q 293.08 146.36 293.51 151.82
  Q 293.68 153.99 294.00 156.17
  Q 294.31 158.29 294.33 160.53
  Q 294.34 162.48 294.78 164.32
  Q 295.23 166.20 295.43 168.22
  Q 295.75 171.36 297.09 174.05
  Q 299.27 178.45 300.97 183.27
  Q 301.75 185.48 303.25 187.18
  Q 304.82 188.96 306.25 190.80
  Q 306.96 191.72 308.02 191.83
  Q 313.64 192.38 318.64 190.09
  Q 323.08 188.06 328.64 185.40
  Q 331.69 183.94 334.72 183.39
  Q 335.18 183.31 335.58 183.08
  Q 337.12 182.20 339.25 182.18
  C 342.46 182.15 346.39 181.68 349.44 182.78
  Q 351.33 183.46 352.86 183.57
  Q 356.69 183.85 361.04 184.59
  Q 362.68 184.87 364.21 185.33
  Q 367.47 186.32 369.95 184.24
  Q 373.42 181.33 374.33 175.06
  C 374.91 171.00 374.54 167.49 373.90 163.57
  Q 373.49 161.02 373.00 158.73
  Q 372.26 155.26 372.16 151.71
  Q 372.35 150.60 371.90 149.47
  Q 371.60 144.50 370.25 140.61
  Q 369.25 137.73 368.98 136.48
  L 380.02 139.41
  A 0.40 0.39 1.5 0 0 380.51 138.95
  L 369.82 90.78
  L 365.18 69.62
  L 388.00 64.07
  Z
  M 274.77 103.61
  Q 274.42 111.51 275.20 119.38
  Q 275.24 119.85 275.72 119.85
  Q 279.72 119.79 283.22 120.82
  A 0.32 0.31 3.6 0 0 283.62 120.47
  Q 282.38 112.61 282.81 105.40
  Q 282.90 103.85 281.47 103.26
  Q 279.07 102.27 276.54 102.06
  Q 274.84 101.92 274.77 103.61
  Z
  M 90.87 182.65
  A 0.67 0.67 0.0 0 0 91.66 182.45
  L 92.85 180.96
  A 0.67 0.67 0.0 0 0 92.64 179.94
  L 86.96 176.98
  A 0.67 0.67 0.0 0 0 86.12 177.17
  L 84.64 179.11
  A 0.67 0.67 0.0 0 0 84.91 180.14
  L 90.87 182.65
  Z
  M 370.97 192.72
  A 0.31 0.31 0.0 0 0 370.61 193.15
  L 373.20 198.97
  A 0.31 0.31 0.0 0 0 373.43 199.15
  L 379.18 200.15
  A 0.31 0.31 0.0 0 0 379.54 199.90
  L 380.43 195.46
  A 0.31 0.31 0.0 0 0 380.21 195.10
  L 370.97 192.72
  Z
  M 177.44 205.56
  L 178.48 202.91
  Q 178.72 202.30 178.13 202.04
  Q 176.25 201.21 175.15 199.09
  Q 174.60 198.03 173.93 199.02
  L 172.73 200.78
  Q 171.99 201.86 172.86 202.85
  Q 174.40 204.59 176.54 205.87
  Q 177.17 206.24 177.44 205.56
  Z
  M 308.73 210.58
  Q 313.39 210.75 317.52 212.92
  A 0.52 0.52 0.0 0 0 318.27 212.57
  Q 318.84 209.92 320.46 207.73
  A 0.46 0.46 0.0 0 0 320.28 207.04
  Q 315.76 205.07 309.96 204.48
  A 1.96 1.96 0.0 0 0 307.83 206.05
  L 307.29 208.77
  Q 306.95 210.52 308.73 210.58
  Z
  M 356.0265 216.4427
  A 1.06 1.06 0.0 0 0 354.5424 216.2315
  L 350.2880 219.4257
  A 1.06 1.06 0.0 0 0 350.0768 220.9098
  L 351.0735 222.2373
  A 1.06 1.06 0.0 0 0 352.5576 222.4485
  L 356.8120 219.2543
  A 1.06 1.06 0.0 0 0 357.0232 217.7702
  L 356.0265 216.4427
  Z
  M 123.0250 219.7562
  A 2.17 1.04 127.3 0 0 125.1673 218.6602
  A 2.17 1.04 127.3 0 0 125.6550 216.3038
  A 2.17 1.04 127.3 0 0 123.5127 217.3998
  A 2.17 1.04 127.3 0 0 123.0250 219.7562
  Z
  M 222.53 220.87
  A 0.64 0.64 0.0 0 0 222.62 222.01
  Q 226.12 223.47 228.76 226.10
  Q 230.53 227.86 231.56 225.60
  L 231.81 225.06
  Q 232.86 222.76 230.87 221.20
  L 225.46 216.98
  A 0.49 0.49 0.0 0 0 224.67 217.30
  Q 224.36 219.77 222.53 220.87
  Z
  M 48.02 252.48
  L 47.98 257.14
  Q 47.96 259.36 50.05 260.08
  Q 54.78 261.72 60.58 261.48
  Q 60.83 261.47 60.80 261.22
  L 59.97 253.36
  A 0.11 0.11 0.0 0 0 59.83 253.26
  Q 55.27 254.31 49.86 251.39
  Q 48.04 250.40 48.02 252.48
  Z
  M 128.36 285.83
  L 139.48 279.87
  A 0.21 0.21 0.0 0 0 139.57 279.58
  L 138.62 277.81
  A 2.82 2.66 -28.2 0 0 134.88 276.80
  L 128.36 280.30
  A 2.82 2.66 -28.2 0 0 127.13 283.97
  L 128.08 285.75
  A 0.21 0.21 0.0 0 0 128.36 285.83
  Z
  M 370.86 286.59
  C 370.29 290.96 368.73 294.81 366.82 298.76
  Q 366.27 299.91 367.53 300.10
  Q 369.75 300.45 372.35 299.65
  Q 373.82 299.20 373.83 297.65
  Q 373.84 292.29 374.98 286.94
  Q 375.11 286.36 374.51 286.31
  L 371.49 286.08
  Q 370.93 286.03 370.86 286.59
  Z
  M 278.58 299.49
  C 281.04 297.77 284.45 296.70 287.30 296.22
  A 0.48 0.48 0.0 0 0 287.52 295.37
  Q 285.05 293.39 282.21 292.26
  A 2.47 2.46 41.1 0 0 280.10 292.40
  L 275.92 294.73
  A 0.47 0.47 0.0 0 0 275.85 295.50
  Q 277.49 296.87 277.73 299.11
  Q 277.83 300.02 278.58 299.49
  Z
  M 18.11 317.99
  Q 15.77 318.62 15.69 321.03
  L 15.61 323.48
  Q 15.53 325.96 17.88 325.16
  Q 21.93 323.78 26.06 324.55
  A 0.71 0.71 0.0 0 0 26.88 323.67
  Q 26.06 320.54 27.59 317.82
  A 0.73 0.72 14.1 0 0 26.94 316.74
  Q 22.33 316.87 18.11 317.99
  Z
  M 76.63 330.72
  A 0.34 0.34 0.0 0 0 76.72 330.31
  L 73.74 324.21
  A 0.34 0.34 0.0 0 0 73.22 324.09
  L 60.77 333.94
  A 0.34 0.34 0.0 0 0 60.68 334.37
  L 64.16 340.59
  A 0.34 0.34 0.0 0 0 64.67 340.69
  L 76.63 330.72
  Z
  M 281.68 345.82
  C 284.45 346.69 286.55 343.73 284.95 341.36
  Q 284.23 340.29 283.95 339.05
  Q 283.56 337.36 282.79 338.91
  Q 281.84 340.81 280.76 342.37
  C 279.81 343.76 279.87 345.26 281.68 345.82
  Z
  M 378.59 352.06
  A 0.34 0.34 0.0 0 0 378.84 351.74
  L 378.92 345.84
  A 0.34 0.34 0.0 0 0 378.53 345.50
  L 369.33 346.96
  A 0.34 0.34 0.0 0 0 369.05 347.33
  L 369.78 353.92
  A 0.34 0.34 0.0 0 0 370.20 354.21
  L 378.59 352.06
  Z
  M 201.50 366.64
  L 201.28 367.06
  Q 200.89 367.81 201.64 368.19
  Q 204.57 369.64 206.97 371.83
  A 0.85 0.84 -59.9 0 0 208.34 371.46
  C 208.71 370.36 208.80 368.69 207.40 368.27
  Q 204.66 367.45 202.21 366.39
  A 0.56 0.56 0.0 0 0 201.50 366.64
  Z
  M 377.52 571.29
  A 0.63 0.63 0.0 0 0 376.81 572.00
  L 377.22 574.87
  A 0.63 0.63 0.0 0 0 378.09 575.36
  L 383.12 573.19
  A 0.63 0.63 0.0 0 0 382.95 571.99
  L 377.52 571.29
  Z"
/>
<path fill="#8a8987" d="
  M 18.87 68.76
  Q 18.21 69.99 18.42 70.86
  L 0.00 66.91
  L 0.00 64.49
  L 18.87 68.76
  Z"
/>
<path fill="#fff7ec" d="
  M 0.00 66.91
  L 18.42 70.86
  L 14.62 89.20
  L 10.66 108.10
  L 9.81 111.48
  L 0.00 107.07
  L 0.00 66.91
  Z"
/>
<path fill="#ffa602" d="
  M 270.50 81.97
  Q 270.42 83.80 270.86 84.52
  L 272.12 96.52
  Q 272.46 100.20 271.51 103.54
  Q 271.35 104.09 270.85 104.34
  Q 270.58 104.48 270.57 104.80
  Q 270.54 105.66 269.81 105.21
  Q 268.60 104.47 267.02 104.65
  Q 261.85 105.22 257.46 104.87
  Q 255.48 104.72 253.32 104.96
  Q 251.37 105.18 248.92 104.91
  C 246.69 104.66 244.44 105.13 242.26 105.00
  Q 237.21 104.67 231.53 104.91
  Q 222.89 105.28 215.16 105.38
  Q 214.02 105.40 212.93 105.73
  Q 211.26 106.24 209.79 105.44
  Q 209.55 105.31 209.65 105.05
  Q 210.09 104.03 209.52 102.92
  Q 209.22 102.34 209.30 102.99
  Q 209.33 103.27 209.09 103.44
  A 0.59 0.58 68.7 0 0 208.86 103.98
  Q 209.06 105.46 208.22 106.60
  L 207.95 101.91
  L 207.81 88.51
  Q 208.44 86.26 207.89 85.76
  L 207.90 77.97
  Q 207.90 77.39 208.47 77.39
  Q 218.89 77.26 228.49 76.80
  Q 247.87 75.88 268.48 73.69
  A 1.29 1.29 0.0 0 1 269.90 74.86
  L 270.50 81.97
  Z"
/>
<path fill="#ff0000" d="
  M 167.95 77.40
  L 175.13 78.49
  Q 175.68 78.57 175.67 79.13
  Q 175.57 81.75 175.24 84.59
  C 175.06 86.17 175.80 87.32 175.63 88.86
  Q 175.34 91.40 175.75 93.71
  L 175.45 111.99
  L 174.91 117.37
  Q 174.90 117.40 174.90 117.37
  Q 174.50 115.53 173.81 113.80
  Q 173.63 113.36 173.15 113.29
  Q 171.58 113.07 170.00 113.37
  Q 168.55 113.65 166.89 113.44
  Q 160.43 112.66 152.26 112.82
  Q 145.34 112.97 135.75 112.82
  Q 135.59 112.82 135.44 112.89
  Q 135.20 113.01 134.93 113.02
  L 113.02 113.71
  A 0.10 0.10 0.0 0 0 112.98 113.90
  Q 113.13 113.97 113.29 114.05
  Q 114.04 114.43 113.24 114.17
  Q 113.00 114.10 112.73 114.11
  Q 112.17 114.14 111.96 114.67
  Q 111.87 114.89 111.74 115.09
  Q 111.29 115.81 111.34 114.96
  Q 111.35 114.72 111.08 114.82
  Q 110.68 114.97 110.64 114.54
  L 110.41 111.48
  Q 111.02 108.89 110.61 106.38
  L 112.37 87.59
  Q 113.59 84.34 113.10 80.98
  L 113.80 74.79
  Q 113.86 74.29 114.36 74.33
  Q 126.07 75.29 137.75 76.10
  Q 152.84 77.15 167.95 77.40
  Z"
/>
<path fill="#8a8987" d="
  M 302.40 78.22
  L 302.66 80.59
  L 270.86 84.52
  Q 270.42 83.80 270.50 81.97
  L 302.40 78.22
  Z"
/>
<path fill="#8a8987" d="
  M 81.36 79.48
  Q 83.60 79.39 85.67 79.72
  C 94.20 81.08 102.90 81.77 111.50 82.54
  Q 113.28 82.69 113.10 80.98
  Q 113.59 84.34 112.37 87.59
  Q 112.46 86.39 112.17 85.60
  Q 111.99 85.11 111.47 85.05
  L 81.15 81.52
  L 81.36 79.48
  Z"
/>
<path fill="#8a8987" d="
  M 207.89 85.76
  Q 208.44 86.26 207.81 88.51
  L 178.41 88.74
  Q 177.59 89.04 176.26 88.05
  Q 175.85 87.74 175.85 87.24
  Q 175.85 86.37 176.25 85.88
  L 207.89 85.76
  Z"
/>
<path fill="#0069cc" d="
  M 80.06 88.30
  L 77.79 104.73
  L 77.33 101.39
  Q 77.25 100.85 76.79 100.56
  Q 76.19 100.19 75.30 100.34
  Q 74.29 100.50 73.28 100.41
  Q 61.98 99.43 50.31 100.33
  Q 50.14 100.34 50.02 100.46
  Q 49.93 100.56 49.83 100.65
  A 0.28 0.28 0.0 0 1 49.66 100.73
  Q 43.16 101.33 36.98 100.95
  Q 33.42 100.73 30.27 100.84
  Q 26.99 100.96 23.77 101.12
  Q 22.47 101.18 21.15 100.91
  Q 19.00 100.48 16.76 101.13
  Q 15.72 101.42 14.61 101.16
  A 1.43 1.43 0.0 0 0 12.87 102.38
  Q 12.51 105.33 10.66 108.10
  L 14.62 89.20
  Q 14.51 89.91 14.69 90.29
  Q 14.98 90.89 15.37 90.35
  Q 18.10 86.61 22.76 87.65
  Q 24.69 88.07 26.78 88.15
  Q 31.60 88.32 35.76 88.16
  Q 40.23 88.00 44.74 88.08
  Q 51.18 88.19 58.00 88.07
  Q 58.34 88.06 58.64 88.17
  Q 59.11 88.34 59.60 88.33
  L 80.06 88.30
  Z"
/>
<path fill="#fff7ec" d="
  M 207.81 88.51
  L 207.95 101.91
  Q 196.87 97.50 185.73 93.51
  Q 181.57 92.02 178.41 88.74
  L 207.81 88.51
  Z"
/>
<path fill="#0087d6" d="
  M 369.82 90.78
  L 380.51 138.95
  A 0.40 0.39 1.5 0 1 380.02 139.41
  L 368.98 136.48
  L 347.51 130.29
  L 343.31 128.86
  A 1.14 1.13 34.9 0 0 342.22 129.05
  Q 327.73 140.81 313.27 151.33
  Q 312.66 151.78 312.55 151.03
  L 308.61 122.68
  L 305.89 102.77
  L 304.35 92.26
  Q 307.05 92.02 309.75 91.80
  Q 310.00 91.78 314.25 91.74
  Q 316.46 91.72 318.49 91.21
  C 320.15 90.80 321.61 91.63 323.29 91.25
  C 325.26 90.81 327.09 91.50 329.07 91.28
  Q 330.94 91.08 332.99 91.51
  Q 333.51 91.62 334.03 91.49
  C 335.29 91.17 336.44 91.50 337.69 91.50
  Q 343.56 91.50 349.27 91.16
  Q 352.98 90.94 356.66 91.22
  Q 360.46 91.51 364.19 91.60
  Q 365.19 91.62 366.20 91.97
  Q 367.19 92.31 368.18 92.49
  Q 368.80 92.61 368.85 93.23
  Q 368.89 93.76 369.12 94.24
  Q 369.51 95.05 369.71 94.18
  Q 370.07 92.58 369.82 90.78
  Z"
/>
<path fill="#febf35" d="
  M 272.12 96.52
  C 272.95 103.89 272.99 110.93 274.23 118.56
  Q 274.93 122.84 275.24 126.64
  Q 276.37 140.38 278.01 154.80
  Q 278.07 155.31 277.57 155.40
  Q 276.63 155.56 275.56 154.85
  L 265.40 150.79
  Q 254.57 146.48 243.48 141.55
  Q 241.58 140.70 240.30 141.55
  Q 227.36 150.19 213.74 157.57
  L 210.15 159.92
  A 0.43 0.43 0.0 0 1 209.48 159.55
  L 209.55 154.88
  L 208.99 132.41
  Q 208.75 129.01 208.70 125.42
  Q 208.70 125.21 208.60 125.10
  Q 208.48 124.96 208.29 124.93
  Q 208.36 124.71 208.48 124.48
  Q 208.61 124.23 208.62 124.00
  Q 208.88 116.93 208.05 110.01
  Q 208.56 108.74 208.22 106.60
  Q 209.06 105.46 208.86 103.98
  A 0.59 0.58 68.7 0 1 209.09 103.44
  Q 209.33 103.27 209.30 102.99
  Q 209.22 102.34 209.52 102.92
  Q 210.09 104.03 209.65 105.05
  Q 209.55 105.31 209.79 105.44
  Q 211.26 106.24 212.93 105.73
  Q 214.02 105.40 215.16 105.38
  Q 222.89 105.28 231.53 104.91
  Q 237.21 104.67 242.26 105.00
  C 244.44 105.13 246.69 104.66 248.92 104.91
  Q 251.37 105.18 253.32 104.96
  Q 255.48 104.72 257.46 104.87
  Q 261.85 105.22 267.02 104.65
  Q 268.60 104.47 269.81 105.21
  Q 270.54 105.66 270.57 104.80
  Q 270.58 104.48 270.85 104.34
  Q 271.35 104.09 271.51 103.54
  Q 272.46 100.20 272.12 96.52
  Z"
/>
<path fill="#0087d6" d="
  M 77.79 104.73
  L 77.71 106.53
  L 71.64 152.10
  A 0.45 0.45 0.0 0 1 70.94 152.41
  L 65.40 148.61
  L 40.12 130.13
  A 1.19 1.19 0.0 0 0 39.03 129.96
  L 24.23 134.91
  Q 23.46 134.71 22.67 135.57
  L 4.14 141.00
  A 0.27 0.27 0.0 0 1 3.80 140.68
  L 7.30 124.57
  Q 7.75 117.74 9.81 111.48
  L 10.66 108.10
  Q 12.51 105.33 12.87 102.38
  A 1.43 1.43 0.0 0 1 14.61 101.16
  Q 15.72 101.42 16.76 101.13
  Q 19.00 100.48 21.15 100.91
  Q 22.47 101.18 23.77 101.12
  Q 26.99 100.96 30.27 100.84
  Q 33.42 100.73 36.98 100.95
  Q 43.16 101.33 49.66 100.73
  A 0.28 0.28 0.0 0 0 49.83 100.65
  Q 49.93 100.56 50.02 100.46
  Q 50.14 100.34 50.31 100.33
  Q 61.98 99.43 73.28 100.41
  Q 74.29 100.50 75.30 100.34
  Q 76.19 100.19 76.79 100.56
  Q 77.25 100.85 77.33 101.39
  L 77.79 104.73
  Z"
/>
<path fill="#ff2b34" d="
  M 274.77 103.61
  Q 274.84 101.92 276.54 102.06
  Q 279.07 102.27 281.47 103.26
  Q 282.90 103.85 282.81 105.40
  Q 282.38 112.61 283.62 120.47
  A 0.32 0.31 3.6 0 1 283.22 120.82
  Q 279.72 119.79 275.72 119.85
  Q 275.24 119.85 275.20 119.38
  Q 274.42 111.51 274.77 103.61
  Z"
/>
<path fill="#f7d6c1" d="
  M 305.89 102.77
  L 308.61 122.68
  Q 308.25 123.87 308.50 125.25
  Q 308.89 127.39 308.63 129.72
  Q 308.55 130.43 308.00 130.00
  Q 307.63 129.70 307.41 130.12
  A 2.86 2.20 70.3 0 0 307.13 130.99
  Q 306.57 135.27 306.76 137.01
  Q 307.23 141.25 307.38 145.52
  Q 307.40 146.01 307.69 146.40
  Q 308.52 147.51 308.69 149.05
  Q 309.07 152.48 309.77 155.87
  Q 310.35 158.66 310.44 161.92
  Q 310.61 168.05 311.47 174.29
  Q 311.75 176.25 313.51 177.07
  Q 314.03 177.31 314.58 177.15
  Q 316.50 176.61 318.41 176.12
  Q 320.16 175.67 321.99 174.59
  Q 324.68 173.00 327.59 172.40
  Q 330.87 171.73 334.32 170.95
  Q 340.55 169.55 348.49 170.01
  Q 354.21 170.34 360.04 171.01
  A 1.91 1.91 0.0 0 0 362.09 169.63
  Q 362.70 167.49 362.41 165.21
  C 362.29 164.28 362.71 163.74 362.52 162.69
  Q 361.37 156.22 360.06 149.91
  Q 359.41 146.79 358.44 143.60
  Q 357.49 140.49 356.54 137.27
  Q 355.92 135.16 355.23 134.41
  Q 353.98 133.05 352.01 133.22
  Q 348.32 133.54 347.51 130.29
  L 368.98 136.48
  Q 369.25 137.73 370.25 140.61
  Q 371.60 144.50 371.90 149.47
  L 367.77 147.96
  Q 367.03 147.70 367.30 148.43
  L 368.77 152.47
  Q 368.97 152.99 369.50 153.15
  Q 371.18 153.65 372.16 151.71
  Q 372.26 155.26 373.00 158.73
  Q 373.49 161.02 373.90 163.57
  C 374.54 167.49 374.91 171.00 374.33 175.06
  Q 373.42 181.33 369.95 184.24
  Q 367.47 186.32 364.21 185.33
  Q 362.68 184.87 361.04 184.59
  Q 356.69 183.85 352.86 183.57
  Q 351.33 183.46 349.44 182.78
  C 346.39 181.68 342.46 182.15 339.25 182.18
  Q 337.12 182.20 335.58 183.08
  Q 335.18 183.31 334.72 183.39
  Q 331.69 183.94 328.64 185.40
  Q 323.08 188.06 318.64 190.09
  Q 313.64 192.38 308.02 191.83
  Q 306.96 191.72 306.25 190.80
  Q 304.82 188.96 303.25 187.18
  Q 301.75 185.48 300.97 183.27
  Q 299.27 178.45 297.09 174.05
  Q 295.75 171.36 295.43 168.22
  Q 295.23 166.20 294.78 164.32
  Q 294.34 162.48 294.33 160.53
  Q 294.31 158.29 294.00 156.17
  Q 293.68 153.99 293.51 151.82
  Q 293.08 146.36 292.46 140.42
  Q 292.12 137.16 291.36 134.75
  Q 290.55 132.23 290.38 129.72
  Q 290.34 129.25 290.05 128.87
  Q 289.79 128.53 289.78 128.10
  Q 289.63 122.82 290.58 120.20
  Q 291.94 116.45 294.94 111.36
  Q 295.02 111.22 295.21 111.20
  Q 295.51 111.17 295.65 110.90
  Q 298.30 105.83 304.26 103.80
  Q 304.80 103.61 305.30 103.96
  Q 305.70 104.25 305.76 103.76
  L 305.89 102.77
  Z"
/>
<path fill="#f7d6c1" d="
  M 10.45 178.89
  L 7.36 176.53
  Q 6.94 176.26 7.29 175.76
  Q 12.50 168.14 18.23 160.99
  Q 19.11 161.23 19.42 161.98
  Q 19.53 162.25 19.26 162.36
  Q 19.09 162.43 18.99 162.43
  Q 18.16 162.40 18.99 162.40
  Q 26.02 162.35 34.33 163.75
  Q 36.54 164.13 38.91 164.18
  A 1.34 1.24 55.9 0 1 39.47 164.31
  Q 45.31 166.97 50.06 170.93
  Q 51.49 172.12 53.00 172.51
  Q 54.44 172.87 55.99 172.84
  Q 56.35 172.83 56.61 173.07
  Q 56.95 173.38 57.38 173.22
  C 61.16 171.80 61.69 167.72 62.44 164.22
  A 0.51 0.50 -7.9 0 1 62.70 163.88
  Q 63.04 163.68 63.10 163.24
  Q 64.03 156.13 65.40 148.61
  L 70.94 152.41
  A 0.45 0.45 0.0 0 0 71.64 152.10
  L 77.71 106.53
  Q 81.76 103.28 84.39 106.50
  Q 85.21 107.51 86.47 111.07
  Q 86.92 112.32 86.86 113.41
  C 86.80 114.67 87.45 115.60 87.34 116.87
  Q 86.84 122.68 85.28 128.06
  Q 84.06 132.28 83.58 135.63
  Q 83.03 139.55 82.13 143.23
  Q 82.07 143.50 82.17 143.75
  Q 82.33 144.17 82.18 144.59
  Q 81.61 146.23 81.20 148.09
  C 81.01 148.97 81.14 149.52 80.84 150.45
  Q 79.41 154.90 79.51 159.64
  Q 79.52 159.99 79.78 160.22
  Q 80.00 160.41 79.91 160.69
  Q 79.84 160.88 79.73 161.05
  Q 79.41 161.50 79.52 162.04
  Q 79.62 162.58 79.44 163.10
  Q 78.54 165.76 78.11 168.63
  Q 77.63 171.88 76.51 174.61
  Q 76.35 175.03 76.37 175.48
  Q 76.39 175.99 76.19 176.47
  Q 75.25 178.75 74.34 180.98
  Q 73.04 184.15 70.01 185.38
  Q 67.32 186.46 64.73 187.09
  Q 64.32 187.19 64.42 187.62
  Q 64.52 188.07 64.06 188.16
  Q 62.99 188.37 62.11 189.05
  Q 61.68 189.39 61.12 189.43
  Q 55.31 189.79 50.26 188.08
  Q 47.00 186.98 44.03 186.02
  Q 43.60 185.88 43.25 185.57
  Q 42.89 185.26 42.44 185.10
  Q 37.34 183.37 32.23 180.59
  A 0.02 0.02 0.0 0 1 32.23 180.55
  Q 32.42 180.48 32.35 180.37
  Q 32.28 180.26 32.16 180.21
  Q 27.66 178.22 24.48 178.76
  Q 21.94 179.18 20.50 178.88
  Q 15.55 177.83 10.45 178.89
  Z
  M 39.98 167.90
  Q 39.90 167.25 39.28 167.47
  Q 36.01 168.61 33.46 171.18
  A 1.83 1.82 -40.5 0 0 33.27 173.53
  L 34.58 175.37
  Q 35.44 176.59 36.46 175.50
  Q 38.88 172.89 41.82 172.08
  A 0.67 0.67 0.0 0 0 41.96 170.84
  Q 40.21 169.93 39.98 167.90
  Z"
/>
<path fill="#f7d6c1" d="
  M 110.61 106.38
  Q 111.02 108.89 110.41 111.48
  L 106.34 156.41
  Q 108.47 158.59 107.05 163.20
  Q 106.45 165.16 106.29 166.37
  Q 106.08 168.01 105.87 169.64
  Q 105.61 171.78 104.89 173.67
  Q 104.12 175.69 104.40 177.91
  Q 104.48 178.51 104.20 179.06
  Q 103.79 179.86 103.97 180.79
  Q 104.23 182.13 105.33 182.73
  Q 106.08 183.14 106.74 183.61
  Q 107.41 184.08 108.25 184.16
  Q 110.99 184.42 113.56 184.69
  Q 117.98 185.15 122.34 183.24
  Q 124.60 182.25 127.08 182.01
  Q 133.61 181.37 139.84 182.13
  C 144.00 182.64 148.25 184.26 152.19 185.75
  C 153.51 186.25 154.88 185.83 155.86 186.45
  Q 158.50 188.12 160.15 185.71
  Q 160.54 185.13 161.23 184.93
  A 1.08 1.06 2.2 0 0 161.91 184.31
  Q 164.28 178.76 164.42 173.97
  Q 164.50 171.25 164.76 168.33
  Q 165.09 164.54 164.99 162.66
  Q 164.78 158.81 164.25 154.73
  L 170.08 157.87
  Q 168.93 158.77 169.12 161.25
  Q 169.56 166.89 169.59 172.02
  Q 169.64 179.57 166.97 186.60
  C 166.30 188.36 164.84 189.27 163.71 190.65
  Q 163.42 191.00 162.97 191.10
  Q 162.11 191.29 161.48 191.97
  A 1.88 1.87 14.8 0 1 160.53 192.52
  Q 156.47 193.43 152.65 191.46
  Q 152.39 191.33 152.10 191.26
  Q 151.82 191.19 151.74 190.90
  A 0.56 0.52 10.6 0 0 151.50 190.57
  Q 145.60 187.06 138.89 185.08
  Q 134.92 183.91 131.39 184.10
  Q 127.82 184.30 124.19 185.16
  Q 119.47 186.28 113.74 186.87
  Q 109.24 187.34 104.71 185.59
  Q 102.70 184.82 101.89 183.11
  Q 101.19 181.62 101.64 179.72
  Q 102.94 174.24 102.65 166.65
  Q 102.58 164.60 103.10 160.99
  Q 103.19 160.37 102.81 159.86
  Q 101.77 158.50 103.08 157.19
  A 1.75 1.75 0.0 0 0 103.57 156.23
  Q 103.72 155.31 103.07 154.55
  Q 102.74 154.18 102.79 153.68
  Q 102.88 152.54 103.71 151.85
  Q 104.00 151.62 103.70 151.40
  Q 102.94 150.84 103.47 150.07
  Q 103.74 149.68 103.62 149.22
  C 103.24 147.85 103.91 146.95 103.82 145.59
  Q 103.67 143.00 103.63 140.29
  Q 103.61 138.76 104.29 137.24
  Q 104.50 136.79 104.35 136.32
  Q 103.85 134.70 104.84 133.15
  Q 105.10 132.76 105.11 132.28
  L 105.19 127.62
  A 0.08 0.07 -64.7 0 1 105.32 127.57
  Q 105.42 127.69 105.58 127.59
  Q 105.76 127.48 105.69 127.26
  Q 105.30 125.85 105.92 124.76
  Q 106.37 123.97 106.59 123.00
  Q 107.12 120.77 107.24 118.49
  Q 107.27 117.68 107.88 118.09
  Q 108.02 118.18 108.25 118.05
  Q 108.41 117.96 108.45 117.77
  L 110.61 106.38
  Z"
/>
<path fill="#3f77f9" d="
  M 9.81 111.48
  Q 7.75 117.74 7.30 124.57
  L 7.48 122.92
  Q 7.54 122.38 7.05 122.15
  L 0.00 118.81
  L 0.00 107.07
  L 9.81 111.48
  Z"
/>
<path fill="#ff2b34" d="
  M 110.41 111.48
  L 110.64 114.54
  Q 110.68 114.97 111.08 114.82
  Q 111.35 114.72 111.34 114.96
  Q 111.29 115.81 111.74 115.09
  Q 111.87 114.89 111.96 114.67
  Q 112.17 114.14 112.73 114.11
  Q 113.00 114.10 113.24 114.17
  Q 114.04 114.43 113.29 114.05
  Q 113.13 113.97 112.98 113.90
  A 0.10 0.10 0.0 0 1 113.02 113.71
  L 134.93 113.02
  Q 135.20 113.01 135.44 112.89
  Q 135.59 112.82 135.75 112.82
  Q 145.34 112.97 152.26 112.82
  Q 160.43 112.66 166.89 113.44
  Q 168.55 113.65 170.00 113.37
  Q 171.58 113.07 173.15 113.29
  Q 173.63 113.36 173.81 113.80
  Q 174.50 115.53 174.90 117.37
  Q 174.90 117.40 174.91 117.37
  L 175.45 111.99
  L 175.35 126.82
  L 174.37 128.72
  Q 174.15 129.15 174.19 129.64
  L 175.12 141.71
  L 174.77 159.34
  A 0.62 0.62 0.0 0 1 173.86 159.88
  L 170.08 157.87
  L 164.25 154.73
  Q 153.13 148.58 141.52 141.68
  Q 140.47 141.05 139.35 141.62
  Q 123.67 149.49 106.34 156.41
  L 110.41 111.48
  Z"
/>
<path fill="#f7d6c1" d="
  M 0.00 118.81
  L 7.05 122.15
  Q 7.54 122.38 7.48 122.92
  L 7.30 124.57
  L 3.80 140.68
  A 0.27 0.27 0.0 0 0 4.14 141.00
  L 22.67 135.57
  Q 22.91 142.25 18.43 148.19
  Q 13.20 155.10 8.07 162.09
  Q 6.65 164.02 5.28 168.99
  Q 1.02 168.11 0.00 163.23
  L 0.00 118.81
  Z"
/>
<path fill="#f6c7aa" d="
  M 308.61 122.68
  L 312.55 151.03
  Q 312.66 151.78 313.27 151.33
  Q 327.73 140.81 342.22 129.05
  A 1.14 1.13 34.9 0 1 343.31 128.86
  L 347.51 130.29
  Q 348.32 133.54 352.01 133.22
  Q 353.98 133.05 355.23 134.41
  Q 355.92 135.16 356.54 137.27
  Q 357.49 140.49 358.44 143.60
  Q 359.41 146.79 360.06 149.91
  Q 361.37 156.22 362.52 162.69
  C 362.71 163.74 362.29 164.28 362.41 165.21
  Q 362.70 167.49 362.09 169.63
  A 1.91 1.91 0.0 0 1 360.04 171.01
  Q 354.21 170.34 348.49 170.01
  Q 340.55 169.55 334.32 170.95
  Q 330.87 171.73 327.59 172.40
  Q 324.68 173.00 321.99 174.59
  Q 320.16 175.67 318.41 176.12
  Q 316.50 176.61 314.58 177.15
  Q 314.03 177.31 313.51 177.07
  Q 311.75 176.25 311.47 174.29
  Q 310.61 168.05 310.44 161.92
  Q 310.35 158.66 309.77 155.87
  Q 309.07 152.48 308.69 149.05
  Q 308.52 147.51 307.69 146.40
  Q 307.40 146.01 307.38 145.52
  Q 307.23 141.25 306.76 137.01
  Q 306.57 135.27 307.13 130.99
  A 2.86 2.20 70.3 0 1 307.41 130.12
  Q 307.63 129.70 308.00 130.00
  Q 308.55 130.43 308.63 129.72
  Q 308.89 127.39 308.50 125.25
  Q 308.25 123.87 308.61 122.68
  Z
  M 330.80 145.67
  L 330.64 146.03
  A 1.86 1.85 27.3 0 0 331.39 148.37
  Q 332.51 149.04 333.52 148.86
  Q 334.05 148.76 334.40 148.34
  L 336.64 145.64
  A 0.30 0.30 0.0 0 0 336.35 145.16
  Q 334.54 145.50 332.78 144.84
  Q 331.40 144.32 330.80 145.67
  Z"
/>
<path fill="#ff2b34" d="
  M 208.29 124.93
  Q 208.48 124.96 208.60 125.10
  Q 208.70 125.21 208.70 125.42
  Q 208.75 129.01 208.99 132.41
  C 203.03 135.27 197.01 138.05 191.95 142.13
  A 1.30 1.30 0.0 0 0 191.77 143.98
  C 196.10 149.10 203.37 152.01 209.55 154.88
  L 209.48 159.55
  A 0.43 0.43 0.0 0 0 210.15 159.92
  L 213.74 157.57
  C 217.02 159.81 218.56 162.73 218.34 166.78
  C 218.16 170.30 219.23 174.29 216.02 176.80
  C 212.19 179.79 208.13 181.83 204.31 184.57
  Q 199.54 187.98 196.48 191.81
  Q 193.36 195.27 192.31 199.27
  Q 192.17 199.82 192.41 200.34
  C 195.38 206.65 202.74 209.98 209.22 211.97
  Q 209.44 212.04 209.44 212.26
  L 209.45 219.59
  A 0.21 0.21 0.0 0 1 209.17 219.79
  C 201.03 217.15 191.58 212.72 191.79 202.97
  C 191.93 196.35 191.30 191.32 195.42 185.66
  C 198.71 181.16 202.87 177.23 207.68 174.49
  Q 211.81 172.15 215.85 169.05
  A 1.11 1.10 48.7 0 0 215.95 167.38
  C 209.55 161.14 200.23 159.58 193.63 153.69
  C 191.13 151.45 190.10 148.80 190.04 145.39
  Q 189.92 139.30 190.32 137.35
  C 191.31 132.57 204.08 126.79 208.29 124.93
  Z"
/>
<path fill="#01bc74" d="
  M 175.35 126.82
  Q 175.39 128.01 176.49 128.56
  Q 178.20 129.40 179.40 130.84
  Q 179.73 131.25 179.62 131.76
  Q 178.80 135.58 175.89 137.29
  Q 175.47 137.54 175.35 138.01
  Q 174.94 139.73 175.12 141.71
  L 174.19 129.64
  Q 174.15 129.15 174.37 128.72
  L 175.35 126.82
  Z"
/>
<path fill="#f6c7aa" d="
  M 65.40 148.61
  Q 64.03 156.13 63.10 163.24
  Q 63.04 163.68 62.70 163.88
  A 0.51 0.50 -7.9 0 0 62.44 164.22
  C 61.69 167.72 61.16 171.80 57.38 173.22
  Q 56.95 173.38 56.61 173.07
  Q 56.35 172.83 55.99 172.84
  Q 54.44 172.87 53.00 172.51
  Q 51.49 172.12 50.06 170.93
  Q 45.31 166.97 39.47 164.31
  A 1.34 1.24 55.9 0 0 38.91 164.18
  Q 36.54 164.13 34.33 163.75
  Q 26.02 162.35 18.99 162.40
  Q 18.16 162.40 18.99 162.43
  Q 19.09 162.43 19.26 162.36
  Q 19.53 162.25 19.42 161.98
  Q 19.11 161.23 18.23 160.99
  C 21.43 155.24 23.90 150.56 24.08 143.75
  Q 24.19 139.45 24.23 134.91
  L 39.03 129.96
  A 1.19 1.19 0.0 0 1 40.12 130.13
  L 65.40 148.61
  Z"
/>
<path fill="#f7d6c1" d="
  M 208.99 132.41
  L 209.55 154.88
  C 203.37 152.01 196.10 149.10 191.77 143.98
  A 1.30 1.30 0.0 0 1 191.95 142.13
  C 197.01 138.05 203.03 135.27 208.99 132.41
  Z"
/>
<path fill="#0150c3" d="
  M 24.23 134.91
  Q 24.19 139.45 24.08 143.75
  C 23.90 150.56 21.43 155.24 18.23 160.99
  Q 12.50 168.14 7.29 175.76
  Q 6.94 176.26 7.36 176.53
  Q 6.38 176.69 5.25 176.48
  L 5.28 168.99
  Q 6.65 164.02 8.07 162.09
  Q 13.20 155.10 18.43 148.19
  Q 22.91 142.25 22.67 135.57
  Q 23.46 134.71 24.23 134.91
  Z"
/>
<path fill="#f6c7aa" d="
  M 164.25 154.73
  Q 164.78 158.81 164.99 162.66
  Q 165.09 164.54 164.76 168.33
  Q 164.50 171.25 164.42 173.97
  Q 164.28 178.76 161.91 184.31
  A 1.08 1.06 2.2 0 1 161.23 184.93
  Q 160.54 185.13 160.15 185.71
  Q 158.50 188.12 155.86 186.45
  C 154.88 185.83 153.51 186.25 152.19 185.75
  C 148.25 184.26 144.00 182.64 139.84 182.13
  Q 133.61 181.37 127.08 182.01
  Q 124.60 182.25 122.34 183.24
  Q 117.98 185.15 113.56 184.69
  Q 110.99 184.42 108.25 184.16
  Q 107.41 184.08 106.74 183.61
  Q 106.08 183.14 105.33 182.73
  Q 104.23 182.13 103.97 180.79
  Q 103.79 179.86 104.20 179.06
  Q 104.48 178.51 104.40 177.91
  Q 104.12 175.69 104.89 173.67
  Q 105.61 171.78 105.87 169.64
  Q 106.08 168.01 106.29 166.37
  Q 106.45 165.16 107.05 163.20
  Q 108.47 158.59 106.34 156.41
  Q 123.67 149.49 139.35 141.62
  Q 140.47 141.05 141.52 141.68
  Q 153.13 148.58 164.25 154.73
  Z"
/>
<path fill="#f6c7aa" d="
  M 265.40 150.79
  Q 265.04 152.71 264.87 156.75
  Q 264.81 158.11 265.01 159.13
  Q 265.44 161.25 265.46 161.43
  Q 265.62 163.28 265.89 165.15
  C 266.55 169.78 266.09 174.90 266.35 179.66
  Q 266.46 181.77 266.94 183.86
  Q 267.51 186.32 266.35 188.52
  Q 265.23 190.64 262.51 190.60
  Q 262.09 190.60 261.75 190.84
  Q 260.83 191.48 259.64 191.01
  A 1.94 1.85 -36.1 0 0 258.74 190.89
  Q 257.48 191.01 256.33 190.50
  Q 255.63 190.20 254.86 189.98
  Q 253.65 189.65 252.61 189.01
  Q 247.90 186.12 241.93 184.20
  C 240.51 183.74 239.36 183.98 237.96 183.80
  Q 236.49 183.62 235.03 183.77
  Q 230.52 184.25 225.81 185.19
  Q 225.13 185.33 224.26 185.72
  Q 223.49 186.06 222.69 186.29
  Q 221.50 186.64 220.37 187.11
  Q 215.84 189.01 211.07 188.54
  Q 209.38 188.37 207.50 186.99
  Q 205.90 185.83 204.31 184.57
  C 208.13 181.83 212.19 179.79 216.02 176.80
  C 219.23 174.29 218.16 170.30 218.34 166.78
  C 218.56 162.73 217.02 159.81 213.74 157.57
  Q 227.36 150.19 240.30 141.55
  Q 241.58 140.70 243.48 141.55
  Q 254.57 146.48 265.40 150.79
  Z"
/>
<path fill="#0150c3" d="
  M 332.78 144.84
  Q 334.54 145.50 336.35 145.16
  A 0.30 0.30 0.0 0 1 336.64 145.64
  L 334.40 148.34
  Q 334.05 148.76 333.52 148.86
  Q 332.51 149.04 331.39 148.37
  A 1.86 1.85 27.3 0 1 330.64 146.03
  L 330.80 145.67
  Q 331.40 144.32 332.78 144.84
  Z"
/>
<path fill="#f26dce" d="
  M 371.90 149.47
  Q 372.35 150.60 372.16 151.71
  Q 371.18 153.65 369.50 153.15
  Q 368.97 152.99 368.77 152.47
  L 367.30 148.43
  Q 367.03 147.70 367.77 147.96
  L 371.90 149.47
  Z"
/>
<path fill="#f7d6c1" d="
  M 265.40 150.79
  L 275.56 154.85
  Q 274.81 154.78 274.37 155.12
  Q 274.02 155.40 274.02 155.85
  Q 274.04 161.24 274.23 166.73
  Q 274.40 171.58 274.08 175.77
  Q 273.75 180.24 272.87 184.70
  Q 272.37 187.27 270.99 190.09
  Q 270.40 191.32 269.51 191.82
  C 268.62 192.33 268.39 192.78 267.33 193.02
  Q 265.28 193.49 263.36 193.96
  C 261.17 194.51 259.64 194.27 257.44 194.17
  Q 256.31 194.12 255.08 193.85
  Q 252.74 193.32 250.35 193.04
  Q 248.76 192.85 247.23 192.38
  Q 245.76 191.93 244.18 191.89
  Q 238.84 191.73 234.27 192.15
  C 231.85 192.38 229.69 193.74 227.29 194.18
  Q 224.99 194.61 223.25 195.81
  Q 221.99 196.68 220.53 197.08
  Q 216.49 198.17 212.70 199.15
  Q 208.02 200.37 204.07 198.39
  Q 202.46 197.59 200.21 195.24
  Q 198.43 193.39 196.48 191.81
  Q 199.54 187.98 204.31 184.57
  Q 205.90 185.83 207.50 186.99
  Q 209.38 188.37 211.07 188.54
  Q 215.84 189.01 220.37 187.11
  Q 221.50 186.64 222.69 186.29
  Q 223.49 186.06 224.26 185.72
  Q 225.13 185.33 225.81 185.19
  Q 230.52 184.25 235.03 183.77
  Q 236.49 183.62 237.96 183.80
  C 239.36 183.98 240.51 183.74 241.93 184.20
  Q 247.90 186.12 252.61 189.01
  Q 253.65 189.65 254.86 189.98
  Q 255.63 190.20 256.33 190.50
  Q 257.48 191.01 258.74 190.89
  A 1.94 1.85 -36.1 0 1 259.64 191.01
  Q 260.83 191.48 261.75 190.84
  Q 262.09 190.60 262.51 190.60
  Q 265.23 190.64 266.35 188.52
  Q 267.51 186.32 266.94 183.86
  Q 266.46 181.77 266.35 179.66
  C 266.09 174.90 266.55 169.78 265.89 165.15
  Q 265.62 163.28 265.46 161.43
  Q 265.44 161.25 265.01 159.13
  Q 264.81 158.11 264.87 156.75
  Q 265.04 152.71 265.40 150.79
  Z"
/>
<path fill="#01bc74" d="
  M 39.98 167.90
  Q 40.21 169.93 41.96 170.84
  A 0.67 0.67 0.0 0 1 41.82 172.08
  Q 38.88 172.89 36.46 175.50
  Q 35.44 176.59 34.58 175.37
  L 33.27 173.53
  A 1.83 1.82 -40.5 0 1 33.46 171.18
  Q 36.01 168.61 39.28 167.47
  Q 39.90 167.25 39.98 167.90
  Z"
/>
<path fill="#3f77f9" d="
  M 5.25 176.48
  Q 6.38 176.69 7.36 176.53
  L 10.45 178.89
  Q 11.72 179.90 14.71 182.77
  Q 18.15 186.06 19.51 189.69
  C 20.96 193.57 20.12 199.14 20.34 203.47
  C 20.56 207.80 18.94 211.67 16.20 214.91
  C 12.43 219.39 7.75 224.08 5.45 229.58
  A 2.18 2.17 -53.6 0 0 5.79 231.83
  C 9.14 235.83 13.33 239.06 17.75 241.87
  C 23.17 245.31 27.51 251.47 27.28 258.18
  Q 27.18 260.94 27.36 263.68
  Q 27.64 268.20 26.08 263.95
  C 24.44 259.48 21.26 256.28 17.29 253.81
  C 11.98 250.51 3.20 244.27 3.51 237.22
  C 3.76 231.30 2.97 224.90 4.72 219.38
  C 6.91 212.47 13.05 206.29 17.71 200.85
  A 1.84 1.83 49.3 0 0 17.87 198.69
  C 15.10 194.25 10.56 191.58 6.87 188.04
  C 4.07 185.35 4.92 179.99 5.25 176.48
  Z"
/>
<path fill="#ff2b34" d="
  M 90.87 182.65
  L 84.91 180.14
  A 0.67 0.67 0.0 0 1 84.64 179.11
  L 86.12 177.17
  A 0.67 0.67 0.0 0 1 86.96 176.98
  L 92.64 179.94
  A 0.67 0.67 0.0 0 1 92.85 180.96
  L 91.66 182.45
  A 0.67 0.67 0.0 0 1 90.87 182.65
  Z"
/>
<path fill="#ff2b34" d="
  M 370.97 192.72
  L 380.21 195.10
  A 0.31 0.31 0.0 0 1 380.43 195.46
  L 379.54 199.90
  A 0.31 0.31 0.0 0 1 379.18 200.15
  L 373.43 199.15
  A 0.31 0.31 0.0 0 1 373.20 198.97
  L 370.61 193.15
  A 0.31 0.31 0.0 0 1 370.97 192.72
  Z"
/>
<path fill="#ff2b34" d="
  M 176.54 205.87
  Q 174.40 204.59 172.86 202.85
  Q 171.99 201.86 172.73 200.78
  L 173.93 199.02
  Q 174.60 198.03 175.15 199.09
  Q 176.25 201.21 178.13 202.04
  Q 178.72 202.30 178.48 202.91
  L 177.44 205.56
  Q 177.17 206.24 176.54 205.87
  Z"
/>
<path fill="#3f77f9" d="
  M 308.73 210.58
  Q 306.95 210.52 307.29 208.77
  L 307.83 206.05
  A 1.96 1.96 0.0 0 1 309.96 204.48
  Q 315.76 205.07 320.28 207.04
  A 0.46 0.46 0.0 0 1 320.46 207.73
  Q 318.84 209.92 318.27 212.57
  A 0.52 0.52 0.0 0 1 317.52 212.92
  Q 313.39 210.75 308.73 210.58
  Z"
/>
<rect fill="#ff2b34" x="-3.72" y="-1.89" transform="translate(353.55,219.34) rotate(-36.9)" width="7.44" height="3.78" rx="1.06"/>
<ellipse fill="#01bc74" cx="0.00" cy="0.00" transform="translate(124.34,218.03) rotate(127.3)" rx="2.17" ry="1.04"/>
<path fill="#f26dce" d="
  M 222.53 220.87
  Q 224.36 219.77 224.67 217.30
  A 0.49 0.49 0.0 0 1 225.46 216.98
  L 230.87 221.20
  Q 232.86 222.76 231.81 225.06
  L 231.56 225.60
  Q 230.53 227.86 228.76 226.10
  Q 226.12 223.47 222.62 222.01
  A 0.64 0.64 0.0 0 1 222.53 220.87
  Z"
/>
<path fill="#01bc74" d="
  M 388.00 236.97
  L 388.00 244.10
  Q 384.15 243.83 379.94 241.69
  Q 379.14 241.29 379.85 240.74
  Q 382.40 238.75 382.81 235.23
  A 0.42 0.41 15.1 0 1 383.39 234.90
  L 388.00 236.97
  Z"
/>
<path fill="#febf35" d="
  M 49.86 251.39
  Q 55.27 254.31 59.83 253.26
  A 0.11 0.11 0.0 0 1 59.97 253.36
  L 60.80 261.22
  Q 60.83 261.47 60.58 261.48
  Q 54.78 261.72 50.05 260.08
  Q 47.96 259.36 47.98 257.14
  L 48.02 252.48
  Q 48.04 250.40 49.86 251.39
  Z"
/>
<path fill="#febf35" d="
  M 128.36 285.83
  A 0.21 0.21 0.0 0 1 128.08 285.75
  L 127.13 283.97
  A 2.82 2.66 -28.2 0 1 128.36 280.30
  L 134.88 276.80
  A 2.82 2.66 -28.2 0 1 138.62 277.81
  L 139.57 279.58
  A 0.21 0.21 0.0 0 1 139.48 279.87
  L 128.36 285.83
  Z"
/>
<path fill="#3f77f9" d="
  M 366.82 298.76
  C 368.73 294.81 370.29 290.96 370.86 286.59
  Q 370.93 286.03 371.49 286.08
  L 374.51 286.31
  Q 375.11 286.36 374.98 286.94
  Q 373.84 292.29 373.83 297.65
  Q 373.82 299.20 372.35 299.65
  Q 369.75 300.45 367.53 300.10
  Q 366.27 299.91 366.82 298.76
  Z"
/>
<path fill="#01bc74" d="
  M 287.30 296.22
  C 284.45 296.70 281.04 297.77 278.58 299.49
  Q 277.83 300.02 277.73 299.11
  Q 277.49 296.87 275.85 295.50
  A 0.47 0.47 0.0 0 1 275.92 294.73
  L 280.10 292.40
  A 2.47 2.46 41.1 0 1 282.21 292.26
  Q 285.05 293.39 287.52 295.37
  A 0.48 0.48 0.0 0 1 287.30 296.22
  Z"
/>
<path fill="#febf35" d="
  M 18.11 317.99
  Q 22.33 316.87 26.94 316.74
  A 0.73 0.72 14.1 0 1 27.59 317.82
  Q 26.06 320.54 26.88 323.67
  A 0.71 0.71 0.0 0 1 26.06 324.55
  Q 21.93 323.78 17.88 325.16
  Q 15.53 325.96 15.61 323.48
  L 15.69 321.03
  Q 15.77 318.62 18.11 317.99
  Z"
/>
<path fill="#01bc74" d="
  M 76.63 330.72
  L 64.67 340.69
  A 0.34 0.34 0.0 0 1 64.16 340.59
  L 60.68 334.37
  A 0.34 0.34 0.0 0 1 60.77 333.94
  L 73.22 324.09
  A 0.34 0.34 0.0 0 1 73.74 324.21
  L 76.72 330.31
  A 0.34 0.34 0.0 0 1 76.63 330.72
  Z"
/>
<path fill="#febf35" d="
  M 281.68 345.82
  C 279.87 345.26 279.81 343.76 280.76 342.37
  Q 281.84 340.81 282.79 338.91
  Q 283.56 337.36 283.95 339.05
  Q 284.23 340.29 284.95 341.36
  C 286.55 343.73 284.45 346.69 281.68 345.82
  Z"
/>
<path fill="#ff2b34" d="
  M 378.59 352.06
  L 370.20 354.21
  A 0.34 0.34 0.0 0 1 369.78 353.92
  L 369.05 347.33
  A 0.34 0.34 0.0 0 1 369.33 346.96
  L 378.53 345.50
  A 0.34 0.34 0.0 0 1 378.92 345.84
  L 378.84 351.74
  A 0.34 0.34 0.0 0 1 378.59 352.06
  Z"
/>
<path fill="#3f77f9" d="
  M 202.21 366.39
  Q 204.66 367.45 207.40 368.27
  C 208.80 368.69 208.71 370.36 208.34 371.46
  A 0.85 0.84 -59.9 0 1 206.97 371.83
  Q 204.57 369.64 201.64 368.19
  Q 200.89 367.81 201.28 367.06
  L 201.50 366.64
  A 0.56 0.56 0.0 0 1 202.21 366.39
  Z"
/>
<path fill="#01bc74" d="
  M 0.00 542.46
  Q 1.82 542.79 3.39 543.94
  Q 3.86 544.29 3.62 544.83
  Q 2.99 546.20 1.89 547.08
  A 0.90 0.89 64.8 0 1 0.46 546.56
  L 0.00 544.39
  L 0.00 542.46
  Z"
/>
<path fill="#f26dce" d="
  M 377.52 571.29
  L 382.95 571.99
  A 0.63 0.63 0.0 0 1 383.12 573.19
  L 378.09 575.36
  A 0.63 0.63 0.0 0 1 377.22 574.87
  L 376.81 572.00
  A 0.63 0.63 0.0 0 1 377.52 571.29
  Z"
/>
</svg>
